<?xml version="1.0" encoding="UTF-8"?>
<svg xmlns="http://www.w3.org/2000/svg" xmlns:xlink="http://www.w3.org/1999/xlink" width="19pt" height="19pt" viewBox="0 0 19 19" version="1.1">
<defs>
<linearGradient id="linear0" gradientUnits="userSpaceOnUse" x1="49" y1="13.2002" x2="49" y2="88.7998" gradientTransform="matrix(0.193878,0,0,0.193878,0,-0.387755)">
<stop offset="0" style="stop-color:rgb(0%,93.72549%,81.960784%);stop-opacity:1;"/>
<stop offset="1" style="stop-color:rgb(0%,67.45098%,91.764706%);stop-opacity:1;"/>
</linearGradient>
</defs>
<g id="surface1">
<path style=" stroke:none;fill-rule:nonzero;fill:url(#linear0);" d="M 18.300781 7.117188 L 15.394531 2.441406 C 15.296875 2.269531 15.101562 2.171875 14.910156 2.171875 L 4.089844 2.171875 C 3.898438 2.171875 3.703125 2.269531 3.605469 2.441406 L 0.699219 7.117188 C 0.5625 7.347656 0.582031 7.640625 0.777344 7.8125 L 9.09375 16.632812 C 9.210938 16.75 9.363281 16.808594 9.519531 16.808594 C 9.675781 16.808594 9.828125 16.75 9.945312 16.632812 L 18.261719 7.8125 C 18.417969 7.640625 18.457031 7.347656 18.300781 7.117188 Z M 16.769531 6.84375 L 13.550781 6.84375 L 12.796875 3.335938 L 14.578125 3.335938 Z M 5.582031 8.007812 L 7.832031 13.628906 L 2.539062 8.007812 Z M 12.195312 8.007812 L 9.5 14.675781 L 6.824219 8.007812 Z M 6.6875 6.84375 L 7.386719 3.335938 L 11.613281 3.335938 L 12.371094 6.84375 Z M 13.4375 8.007812 L 16.460938 8.007812 L 11.1875 13.609375 Z M 4.421875 3.335938 L 6.203125 3.335938 L 5.507812 6.84375 L 2.230469 6.84375 Z M 4.421875 3.335938 "/>
</g>
</svg>
