<?xml version="1.0" encoding="UTF-8"?>
<svg xmlns="http://www.w3.org/2000/svg" xmlns:xlink="http://www.w3.org/1999/xlink" width="16pt" height="16pt" viewBox="0 0 16 16" version="1.1">
<g id="surface18441212">
<path style=" stroke:none;fill-rule:nonzero;fill:rgb(60.784314%,34.901961%,71.372549%);fill-opacity:1;" d="M 8 2 C 4.691406 2 2 4.691406 2 8 C 2 11.308594 4.691406 14 8 14 C 11.308594 14 14 11.308594 14 8 C 14 4.691406 11.308594 2 8 2 Z M 8 3 C 10.765625 3 13 5.234375 13 8 C 13 10.515625 11.15625 12.582031 8.742188 12.9375 L 8.742188 9.457031 L 10.167969 9.457031 L 10.390625 8.011719 L 8.742188 8.011719 L 8.742188 7.222656 C 8.742188 6.621094 8.941406 6.089844 9.503906 6.089844 L 10.40625 6.089844 L 10.40625 4.828125 C 10.246094 4.804688 9.910156 4.757812 9.277344 4.757812 C 7.953125 4.757812 7.179688 5.457031 7.179688 7.050781 L 7.179688 8.011719 L 5.816406 8.011719 L 5.816406 9.457031 L 7.179688 9.457031 L 7.179688 12.925781 C 4.804688 12.535156 3 10.488281 3 8 C 3 5.234375 5.234375 3 8 3 Z M 8 3 "/>
</g>
</svg>
