<?xml version="1.0" encoding="UTF-8"?>
<svg xmlns="http://www.w3.org/2000/svg" xmlns:xlink="http://www.w3.org/1999/xlink" width="16pt" height="16pt" viewBox="0 0 16 16" version="1.1">
<g id="surface19035860">
<path style=" stroke:none;fill-rule:nonzero;fill:rgb(60.784314%,34.901961%,71.372549%);fill-opacity:1;" d="M 5.734375 2.5 C 3.957031 2.5 2.5 3.957031 2.5 5.734375 L 2.5 10.265625 C 2.5 12.042969 3.957031 13.5 5.734375 13.5 L 10.265625 13.5 C 12.042969 13.5 13.5 12.042969 13.5 10.265625 L 13.5 5.734375 C 13.5 3.957031 12.042969 2.5 10.265625 2.5 Z M 5.734375 3.5 L 10.265625 3.5 C 11.503906 3.5 12.5 4.5 12.5 5.734375 L 12.5 10.265625 C 12.5 11.503906 11.5 12.5 10.265625 12.5 L 5.734375 12.5 C 4.496094 12.5 3.5 11.5 3.5 10.265625 L 3.5 5.734375 C 3.5 4.496094 4.5 3.5 5.734375 3.5 Z M 10.953125 4.59375 C 10.703125 4.59375 10.5 4.792969 10.5 5.046875 C 10.5 5.296875 10.703125 5.5 10.953125 5.5 C 11.203125 5.5 11.40625 5.296875 11.40625 5.046875 C 11.40625 4.792969 11.203125 4.59375 10.953125 4.59375 Z M 8 5 C 6.347656 5 5 6.347656 5 8 C 5 9.652344 6.347656 11 8 11 C 9.652344 11 11 9.652344 11 8 C 11 6.347656 9.652344 5 8 5 Z M 8 6 C 9.113281 6 10 6.886719 10 8 C 10 9.113281 9.113281 10 8 10 C 6.886719 10 6 9.113281 6 8 C 6 6.886719 6.886719 6 8 6 Z M 8 6 "/>
</g>
</svg>
