<?xml version="1.0" encoding="UTF-8"?>
<svg xmlns="http://www.w3.org/2000/svg" xmlns:xlink="http://www.w3.org/1999/xlink" width="19pt" height="19pt" viewBox="0 0 19 19" version="1.1">
<g id="surface1">
<path style=" stroke:none;fill-rule:nonzero;fill:rgb(37.254902%,49.019608%,58.431373%);fill-opacity:1;" d="M 18.867188 6.824219 L 16.746094 1.304688 C 16.34375 0.261719 15.171875 -0.257812 14.128906 0.144531 C 14.113281 0.152344 14.097656 0.15625 14.082031 0.164062 L 3.472656 4.5625 C 2.464844 4.976562 1.96875 6.117188 2.355469 7.140625 L 2.644531 7.917969 L 1.976562 7.917969 C 0.886719 7.917969 0 8.804688 0 9.894531 L 0 17.011719 C 0 18.105469 0.886719 18.988281 1.976562 18.992188 L 15.421875 18.992188 C 16.511719 18.988281 17.398438 18.105469 17.398438 17.011719 L 17.398438 9.894531 C 17.398438 9.789062 17.390625 9.679688 17.371094 9.574219 L 17.738281 9.425781 C 18.757812 9.007812 19.257812 7.855469 18.867188 6.824219 Z M 1.976562 8.550781 L 15.421875 8.550781 C 16.132812 8.554688 16.71875 9.105469 16.757812 9.816406 L 0.640625 9.816406 C 0.679688 9.105469 1.265625 8.554688 1.976562 8.550781 Z M 5.15625 6.644531 L 7.269531 5.585938 L 7.707031 6.675781 L 5.589844 7.730469 Z M 16.765625 17.011719 C 16.765625 17.753906 16.164062 18.355469 15.421875 18.359375 L 1.976562 18.359375 C 1.234375 18.355469 0.632812 17.753906 0.632812 17.011719 L 0.632812 12.980469 L 16.765625 12.980469 Z M 16.765625 12.347656 L 0.632812 12.347656 L 0.632812 10.449219 L 16.765625 10.449219 Z M 17.5 8.84375 L 17.171875 8.976562 C 16.828125 8.328125 16.15625 7.917969 15.421875 7.917969 L 6.632812 7.917969 L 8.25 7.109375 C 8.398438 7.035156 8.464844 6.863281 8.402344 6.710938 L 7.730469 5.035156 C 7.667969 4.871094 7.480469 4.792969 7.320312 4.855469 C 7.3125 4.859375 7.304688 4.863281 7.296875 4.867188 L 4.613281 6.210938 C 4.464844 6.285156 4.398438 6.457031 4.460938 6.609375 L 4.984375 7.917969 L 3.320312 7.917969 L 2.945312 6.917969 C 2.679688 6.21875 3.023438 5.433594 3.714844 5.148438 L 14.324219 0.75 C 15.03125 0.457031 15.847656 0.792969 16.140625 1.5 C 16.144531 1.511719 16.148438 1.523438 16.152344 1.535156 L 18.277344 7.054688 C 18.546875 7.761719 18.199219 8.554688 17.5 8.84375 Z M 17.5 8.84375 "/>
<path style=" stroke:none;fill-rule:nonzero;fill:rgb(37.254902%,49.019608%,58.431373%);fill-opacity:1;" d="M 11.378906 17.46875 C 11.96875 17.8125 12.695312 17.8125 13.285156 17.46875 C 14.191406 17.996094 15.355469 17.6875 15.882812 16.78125 C 16.40625 15.875 16.101562 14.710938 15.195312 14.1875 C 14.902344 14.015625 14.570312 13.929688 14.234375 13.929688 C 13.902344 13.929688 13.574219 14.015625 13.285156 14.1875 C 12.378906 13.660156 11.21875 13.96875 10.691406 14.875 C 10.164062 15.78125 10.472656 16.941406 11.378906 17.46875 Z M 13.816406 14.640625 C 13.949219 14.589844 14.09375 14.5625 14.234375 14.5625 C 14.933594 14.5625 15.5 15.128906 15.5 15.828125 C 15.5 16.527344 14.933594 17.09375 14.234375 17.09375 C 14.09375 17.089844 13.949219 17.066406 13.816406 17.015625 C 14.375 16.320312 14.375 15.332031 13.816406 14.640625 Z M 13.285156 15 C 13.707031 15.46875 13.707031 16.183594 13.285156 16.65625 C 12.863281 16.183594 12.863281 15.46875 13.285156 15 Z M 12.335938 14.5625 C 12.480469 14.5625 12.625 14.589844 12.757812 14.640625 C 12.199219 15.332031 12.199219 16.320312 12.757812 17.015625 C 12.625 17.066406 12.480469 17.089844 12.335938 17.09375 C 11.640625 17.09375 11.070312 16.527344 11.070312 15.828125 C 11.070312 15.128906 11.640625 14.5625 12.335938 14.5625 Z M 12.335938 14.5625 "/>
<path style=" stroke:none;fill-rule:nonzero;fill:rgb(37.254902%,49.019608%,58.431373%);fill-opacity:1;" d="M 13.601562 7.117188 L 13.34375 6.539062 L 16.363281 5.195312 L 16.621094 5.773438 Z M 13.601562 7.117188 "/>
<path style=" stroke:none;fill-rule:nonzero;fill:rgb(37.254902%,49.019608%,58.431373%);fill-opacity:1;" d="M 11.328125 5.871094 L 15.6875 3.855469 L 15.953125 4.429688 L 11.59375 6.445312 Z M 11.328125 5.871094 "/>
</g>
</svg>
