<?xml version="1.0" encoding="UTF-8"?>
<svg xmlns="http://www.w3.org/2000/svg" xmlns:xlink="http://www.w3.org/1999/xlink" width="19pt" height="19pt" viewBox="0 0 19 19" version="1.1">
<defs>
<linearGradient id="linear0" gradientUnits="userSpaceOnUse" x1="206.819389" y1="8.174945" x2="206.819389" y2="440.883945" gradientTransform="matrix(0.0387216,0,0,0.0387216,0,0.586282)">
<stop offset="0" style="stop-color:rgb(0%,93.72549%,81.960784%);stop-opacity:1;"/>
<stop offset="1" style="stop-color:rgb(0%,67.45098%,91.764706%);stop-opacity:1;"/>
</linearGradient>
<linearGradient id="linear1" gradientUnits="userSpaceOnUse" x1="206.784389" y1="8.174945" x2="206.784389" y2="440.883945" gradientTransform="matrix(0.0387216,0,0,0.0387216,0,0.586282)">
<stop offset="0" style="stop-color:rgb(0%,93.72549%,81.960784%);stop-opacity:1;"/>
<stop offset="1" style="stop-color:rgb(0%,67.45098%,91.764706%);stop-opacity:1;"/>
</linearGradient>
<linearGradient id="linear2" gradientUnits="userSpaceOnUse" x1="321.499389" y1="8.174945" x2="321.499389" y2="440.883945" gradientTransform="matrix(0.0387216,0,0,0.0387216,0,0.586282)">
<stop offset="0" style="stop-color:rgb(0%,93.72549%,81.960784%);stop-opacity:1;"/>
<stop offset="1" style="stop-color:rgb(0%,67.45098%,91.764706%);stop-opacity:1;"/>
</linearGradient>
<linearGradient id="linear3" gradientUnits="userSpaceOnUse" x1="321.784389" y1="8.174945" x2="321.784389" y2="440.883945" gradientTransform="matrix(0.0387216,0,0,0.0387216,0,0.586282)">
<stop offset="0" style="stop-color:rgb(0%,93.72549%,81.960784%);stop-opacity:1;"/>
<stop offset="1" style="stop-color:rgb(0%,67.45098%,91.764706%);stop-opacity:1;"/>
</linearGradient>
<linearGradient id="linear4" gradientUnits="userSpaceOnUse" x1="436.178389" y1="8.174945" x2="436.178389" y2="440.883945" gradientTransform="matrix(0.0387216,0,0,0.0387216,0,0.586282)">
<stop offset="0" style="stop-color:rgb(0%,93.72549%,81.960784%);stop-opacity:1;"/>
<stop offset="1" style="stop-color:rgb(0%,67.45098%,91.764706%);stop-opacity:1;"/>
</linearGradient>
<linearGradient id="linear5" gradientUnits="userSpaceOnUse" x1="435.784389" y1="8.174945" x2="435.784389" y2="440.883945" gradientTransform="matrix(0.0387216,0,0,0.0387216,0,0.586282)">
<stop offset="0" style="stop-color:rgb(0%,93.72549%,81.960784%);stop-opacity:1;"/>
<stop offset="1" style="stop-color:rgb(0%,67.45098%,91.764706%);stop-opacity:1;"/>
</linearGradient>
<linearGradient id="linear6" gradientUnits="userSpaceOnUse" x1="86.784389" y1="8.174945" x2="86.784389" y2="440.883945" gradientTransform="matrix(0.0387216,0,0,0.0387216,0,0.586282)">
<stop offset="0" style="stop-color:rgb(0%,93.72549%,81.960784%);stop-opacity:1;"/>
<stop offset="1" style="stop-color:rgb(0%,67.45098%,91.764706%);stop-opacity:1;"/>
</linearGradient>
<linearGradient id="linear7" gradientUnits="userSpaceOnUse" x1="87.735389" y1="8.174945" x2="87.735389" y2="440.883945" gradientTransform="matrix(0.0387216,0,0,0.0387216,0,0.586282)">
<stop offset="0" style="stop-color:rgb(0%,93.72549%,81.960784%);stop-opacity:1;"/>
<stop offset="1" style="stop-color:rgb(0%,67.45098%,91.764706%);stop-opacity:1;"/>
</linearGradient>
<linearGradient id="linear8" gradientUnits="userSpaceOnUse" x1="332.284389" y1="8.174945" x2="332.284389" y2="440.883945" gradientTransform="matrix(0.0387216,0,0,0.0387216,0,0.586282)">
<stop offset="0" style="stop-color:rgb(0%,93.72549%,81.960784%);stop-opacity:1;"/>
<stop offset="1" style="stop-color:rgb(0%,67.45098%,91.764706%);stop-opacity:1;"/>
</linearGradient>
<linearGradient id="linear9" gradientUnits="userSpaceOnUse" x1="311.784389" y1="8.174945" x2="311.784389" y2="440.883945" gradientTransform="matrix(0.0387216,0,0,0.0387216,0,0.586282)">
<stop offset="0" style="stop-color:rgb(0%,93.72549%,81.960784%);stop-opacity:1;"/>
<stop offset="1" style="stop-color:rgb(0%,67.45098%,91.764706%);stop-opacity:1;"/>
</linearGradient>
<linearGradient id="linear10" gradientUnits="userSpaceOnUse" x1="332.284389" y1="8.174945" x2="332.284389" y2="440.883945" gradientTransform="matrix(0.0387216,0,0,0.0387216,0,0.586282)">
<stop offset="0" style="stop-color:rgb(0%,93.72549%,81.960784%);stop-opacity:1;"/>
<stop offset="1" style="stop-color:rgb(0%,67.45098%,91.764706%);stop-opacity:1;"/>
</linearGradient>
<linearGradient id="linear11" gradientUnits="userSpaceOnUse" x1="332.284389" y1="8.174945" x2="332.284389" y2="440.883945" gradientTransform="matrix(0.0387216,0,0,0.0387216,0,0.586282)">
<stop offset="0" style="stop-color:rgb(0%,93.72549%,81.960784%);stop-opacity:1;"/>
<stop offset="1" style="stop-color:rgb(0%,67.45098%,91.764706%);stop-opacity:1;"/>
</linearGradient>
</defs>
<g id="surface1">
<path style=" stroke:none;fill-rule:nonzero;fill:url(#linear0);" d="M 8.007812 15.40625 C 8.703125 15.40625 9.265625 14.84375 9.265625 14.148438 C 9.265625 13.457031 8.703125 12.894531 8.007812 12.894531 C 7.3125 12.894531 6.75 13.457031 6.75 14.148438 C 6.753906 14.84375 7.316406 15.40625 8.007812 15.40625 Z M 8.007812 13.4375 C 8.402344 13.4375 8.722656 13.753906 8.722656 14.148438 C 8.722656 14.542969 8.402344 14.863281 8.007812 14.863281 C 7.613281 14.863281 7.292969 14.542969 7.292969 14.148438 C 7.292969 13.753906 7.613281 13.4375 8.007812 13.4375 Z M 8.007812 13.4375 "/>
<path style=" stroke:none;fill-rule:nonzero;fill:url(#linear1);" d="M 8.960938 15.28125 C 8.875 15.277344 8.796875 15.3125 8.742188 15.382812 C 8.6875 15.453125 8.621094 15.519531 8.546875 15.570312 C 8.140625 15.863281 7.578125 15.78125 7.273438 15.382812 C 7.222656 15.316406 7.140625 15.277344 7.054688 15.28125 C 6.75 15.277344 6.457031 15.394531 6.238281 15.609375 C 6.019531 15.824219 5.898438 16.113281 5.898438 16.421875 L 5.898438 18.160156 C 5.898438 18.3125 6.019531 18.417969 6.167969 18.417969 L 9.847656 18.417969 C 9.917969 18.417969 9.984375 18.394531 10.035156 18.347656 C 10.089844 18.296875 10.117188 18.230469 10.117188 18.160156 L 10.117188 16.421875 C 10.117188 16.113281 9.992188 15.824219 9.777344 15.609375 C 9.558594 15.394531 9.265625 15.277344 8.960938 15.28125 Z M 9.574219 17.875 L 6.4375 17.875 L 6.4375 16.421875 C 6.441406 16.125 6.648438 15.875 6.9375 15.816406 C 7.210938 16.117188 7.601562 16.289062 8.007812 16.289062 C 8.414062 16.289062 8.804688 16.117188 9.078125 15.816406 C 9.367188 15.875 9.574219 16.125 9.574219 16.421875 Z M 9.574219 17.875 "/>
<path style=" stroke:none;fill-rule:nonzero;fill:url(#linear2);" d="M 11.191406 14.148438 C 11.191406 14.84375 11.753906 15.40625 12.449219 15.40625 C 13.144531 15.40625 13.707031 14.84375 13.707031 14.148438 C 13.707031 13.457031 13.144531 12.894531 12.449219 12.894531 C 11.753906 12.894531 11.191406 13.457031 11.191406 14.148438 Z M 13.164062 14.148438 C 13.164062 14.542969 12.84375 14.863281 12.449219 14.863281 C 12.054688 14.863281 11.734375 14.542969 11.734375 14.148438 C 11.734375 13.753906 12.054688 13.4375 12.449219 13.4375 C 12.84375 13.4375 13.164062 13.753906 13.164062 14.148438 Z M 13.164062 14.148438 "/>
<path style=" stroke:none;fill-rule:nonzero;fill:url(#linear3);" d="M 13.402344 15.28125 C 13.316406 15.277344 13.234375 15.3125 13.183594 15.382812 C 13.128906 15.453125 13.0625 15.519531 12.988281 15.570312 C 12.582031 15.863281 12.019531 15.78125 11.714844 15.382812 C 11.664062 15.316406 11.582031 15.277344 11.496094 15.28125 C 11.191406 15.277344 10.898438 15.394531 10.683594 15.609375 C 10.46875 15.824219 10.347656 16.117188 10.351562 16.421875 L 10.351562 18.160156 C 10.347656 18.230469 10.375 18.296875 10.425781 18.34375 C 10.472656 18.394531 10.539062 18.417969 10.609375 18.417969 L 14.289062 18.417969 C 14.4375 18.417969 14.570312 18.3125 14.570312 18.160156 L 14.570312 16.421875 C 14.570312 15.78125 14.039062 15.28125 13.402344 15.28125 Z M 14.027344 17.875 L 10.890625 17.875 L 10.890625 16.421875 C 10.890625 16.128906 11.097656 15.875 11.382812 15.816406 C 11.882812 16.363281 12.714844 16.445312 13.3125 16.003906 C 13.386719 15.949219 13.460938 15.886719 13.527344 15.816406 C 13.816406 15.871094 14.027344 16.125 14.027344 16.421875 Z M 14.027344 17.875 "/>
<path style=" stroke:none;fill-rule:nonzero;fill:url(#linear4);" d="M 16.890625 12.894531 C 16.195312 12.894531 15.632812 13.457031 15.632812 14.148438 C 15.632812 14.84375 16.195312 15.40625 16.890625 15.40625 C 17.582031 15.40625 18.144531 14.84375 18.144531 14.148438 C 18.144531 13.457031 17.582031 12.894531 16.890625 12.894531 Z M 16.890625 14.863281 C 16.496094 14.863281 16.175781 14.542969 16.175781 14.148438 C 16.175781 13.753906 16.496094 13.4375 16.890625 13.4375 C 17.285156 13.4375 17.605469 13.753906 17.605469 14.148438 C 17.601562 14.542969 17.285156 14.863281 16.890625 14.863281 Z M 16.890625 14.863281 "/>
<path style=" stroke:none;fill-rule:nonzero;fill:url(#linear5);" d="M 17.84375 15.28125 C 17.757812 15.277344 17.675781 15.3125 17.625 15.382812 C 17.570312 15.453125 17.503906 15.519531 17.429688 15.570312 C 17.027344 15.871094 16.457031 15.789062 16.15625 15.382812 C 16.101562 15.316406 16.023438 15.277344 15.9375 15.28125 C 15.296875 15.28125 14.765625 15.78125 14.765625 16.421875 L 14.765625 18.160156 C 14.765625 18.3125 14.902344 18.417969 15.050781 18.417969 L 18.730469 18.417969 C 18.796875 18.417969 18.863281 18.394531 18.914062 18.34375 C 18.960938 18.296875 18.988281 18.230469 18.984375 18.160156 L 18.984375 16.421875 C 18.988281 16.117188 18.867188 15.824219 18.652344 15.609375 C 18.4375 15.394531 18.144531 15.277344 17.84375 15.28125 Z M 18.441406 17.875 L 15.304688 17.875 L 15.304688 16.421875 C 15.308594 16.125 15.519531 15.871094 15.8125 15.816406 C 16.3125 16.363281 17.148438 16.441406 17.746094 16.003906 C 17.820312 15.949219 17.890625 15.886719 17.949219 15.816406 C 18.238281 15.875 18.445312 16.128906 18.441406 16.421875 Z M 18.441406 17.875 "/>
<path style=" stroke:none;fill-rule:nonzero;fill:url(#linear6);" d="M 3.359375 4.160156 C 4.207031 4.15625 4.890625 3.472656 4.890625 2.625 L 4.890625 2.121094 C 4.890625 1.277344 4.207031 0.589844 3.359375 0.589844 C 2.515625 0.589844 1.832031 1.277344 1.832031 2.121094 L 1.832031 2.625 C 1.832031 3.472656 2.515625 4.15625 3.359375 4.160156 Z M 2.375 2.121094 C 2.375 1.574219 2.816406 1.132812 3.359375 1.132812 C 3.90625 1.132812 4.347656 1.574219 4.347656 2.121094 L 4.347656 2.625 C 4.347656 3.171875 3.90625 3.613281 3.359375 3.613281 C 2.816406 3.613281 2.375 3.171875 2.375 2.625 Z M 2.375 2.121094 "/>
<path style=" stroke:none;fill-rule:nonzero;fill:url(#linear7);" d="M 6.789062 9.761719 L 6.789062 5.898438 C 6.871094 5.035156 6.242188 4.265625 5.378906 4.175781 C 5.328125 4.171875 5.277344 4.167969 5.222656 4.167969 L 4.558594 4.167969 C 4.492188 4.167969 4.425781 4.195312 4.375 4.242188 L 3.40625 5.152344 L 2.472656 4.246094 C 2.421875 4.195312 2.355469 4.167969 2.285156 4.167969 L 1.578125 4.167969 C 1.160156 4.167969 0.753906 4.332031 0.460938 4.632812 C 0.164062 4.929688 0 5.332031 0 5.75 C 0 5.800781 0.0117188 5.847656 0.0117188 5.898438 L 0.0117188 9.761719 C 0.0117188 10.015625 0.109375 10.261719 0.292969 10.4375 C 0.472656 10.617188 0.714844 10.714844 0.96875 10.710938 L 0.980469 10.71875 C 1.148438 10.71875 1.308594 10.675781 1.453125 10.589844 L 1.625 16.390625 C 1.640625 16.808594 1.902344 17.171875 2.292969 17.316406 C 2.683594 17.460938 3.121094 17.355469 3.40625 17.050781 C 3.6875 17.355469 4.125 17.460938 4.515625 17.320312 C 4.90625 17.175781 5.171875 16.808594 5.183594 16.390625 L 5.355469 10.605469 C 5.5 10.6875 5.660156 10.730469 5.824219 10.730469 C 6.082031 10.730469 6.328125 10.628906 6.507812 10.445312 C 6.6875 10.265625 6.789062 10.019531 6.789062 9.761719 Z M 4.167969 16.839844 C 4.039062 16.839844 3.917969 16.789062 3.828125 16.699219 C 3.738281 16.605469 3.6875 16.484375 3.691406 16.355469 L 3.691406 10.65625 C 3.691406 10.507812 3.566406 10.382812 3.417969 10.382812 C 3.269531 10.382812 3.148438 10.507812 3.148438 10.65625 L 3.148438 16.355469 C 3.144531 16.621094 2.929688 16.835938 2.667969 16.839844 C 2.402344 16.84375 2.183594 16.636719 2.171875 16.371094 L 1.96875 9.703125 L 4.839844 9.703125 L 4.644531 16.371094 C 4.640625 16.632812 4.425781 16.839844 4.167969 16.839844 Z M 5.394531 9.761719 L 5.394531 8.917969 L 5.398438 8.785156 C 5.398438 8.765625 5.394531 8.746094 5.394531 8.726562 L 5.394531 7.167969 C 5.394531 7.015625 5.273438 6.894531 5.121094 6.894531 C 4.972656 6.894531 4.851562 7.015625 4.851562 7.167969 L 4.851562 8.910156 L 4.855469 9.160156 L 1.953125 9.160156 L 1.945312 8.761719 C 1.945312 8.75 1.945312 8.742188 1.945312 8.730469 L 1.945312 7.167969 C 1.945312 7.015625 1.824219 6.894531 1.675781 6.894531 C 1.527344 6.894531 1.40625 7.015625 1.40625 7.167969 L 1.40625 9.742188 C 1.40625 9.855469 1.359375 9.964844 1.277344 10.046875 C 1.199219 10.125 1.089844 10.167969 0.976562 10.167969 L 0.96875 10.167969 C 0.859375 10.171875 0.753906 10.128906 0.671875 10.054688 C 0.59375 9.976562 0.550781 9.871094 0.554688 9.761719 L 0.554688 5.882812 C 0.554688 5.875 0.546875 5.867188 0.546875 5.855469 C 0.507812 5.542969 0.617188 5.234375 0.84375 5.015625 C 1.039062 4.820312 1.300781 4.707031 1.578125 4.707031 L 2.171875 4.707031 L 3.210938 5.722656 C 3.214844 5.722656 3.214844 5.726562 3.21875 5.726562 C 3.222656 5.730469 3.226562 5.734375 3.230469 5.738281 C 3.230469 5.738281 3.234375 5.742188 3.238281 5.746094 C 3.242188 5.746094 3.246094 5.75 3.25 5.753906 C 3.253906 5.753906 3.257812 5.757812 3.261719 5.761719 C 3.265625 5.761719 3.269531 5.765625 3.273438 5.765625 C 3.277344 5.769531 3.28125 5.769531 3.285156 5.773438 C 3.289062 5.773438 3.292969 5.777344 3.296875 5.777344 C 3.300781 5.78125 3.304688 5.78125 3.308594 5.78125 C 3.3125 5.785156 3.316406 5.785156 3.320312 5.785156 C 3.324219 5.789062 3.328125 5.789062 3.335938 5.789062 C 3.339844 5.792969 3.34375 5.792969 3.347656 5.792969 C 3.351562 5.792969 3.355469 5.796875 3.359375 5.796875 C 3.363281 5.796875 3.367188 5.796875 3.371094 5.796875 C 3.375 5.796875 3.382812 5.796875 3.386719 5.796875 C 3.390625 5.796875 3.394531 5.796875 3.398438 5.796875 L 3.410156 5.796875 C 3.414062 5.796875 3.421875 5.796875 3.425781 5.796875 C 3.429688 5.796875 3.433594 5.796875 3.4375 5.796875 C 3.441406 5.796875 3.445312 5.796875 3.449219 5.792969 C 3.453125 5.792969 3.457031 5.792969 3.460938 5.792969 C 3.464844 5.789062 3.472656 5.789062 3.476562 5.789062 C 3.480469 5.785156 3.484375 5.785156 3.488281 5.785156 C 3.492188 5.78125 3.496094 5.78125 3.5 5.78125 C 3.503906 5.777344 3.507812 5.777344 3.511719 5.773438 C 3.515625 5.773438 3.519531 5.769531 3.523438 5.769531 C 3.527344 5.765625 3.53125 5.765625 3.535156 5.761719 C 3.539062 5.761719 3.542969 5.757812 3.546875 5.753906 C 3.550781 5.753906 3.554688 5.75 3.558594 5.746094 C 3.5625 5.746094 3.566406 5.742188 3.570312 5.738281 C 3.574219 5.738281 3.578125 5.734375 3.582031 5.730469 C 3.582031 5.730469 3.585938 5.726562 3.585938 5.722656 L 4.667969 4.707031 L 5.222656 4.707031 C 5.535156 4.714844 5.832031 4.855469 6.03125 5.09375 C 6.203125 5.308594 6.285156 5.582031 6.253906 5.855469 C 6.25 5.867188 6.246094 5.875 6.246094 5.882812 L 6.246094 9.761719 C 6.246094 9.996094 6.054688 10.1875 5.820312 10.1875 C 5.582031 10.1875 5.394531 9.996094 5.394531 9.761719 Z M 5.394531 9.761719 "/>
<path style=" stroke:none;fill-rule:nonzero;fill:url(#linear8);" d="M 10.394531 11.730469 C 10.492188 11.84375 10.664062 11.851562 10.777344 11.753906 L 12.855469 9.902344 L 14.933594 11.753906 C 15.042969 11.851562 15.214844 11.84375 15.3125 11.730469 C 15.414062 11.617188 15.402344 11.445312 15.292969 11.34375 L 13.414062 9.664062 L 16.824219 9.664062 C 17.109375 9.664062 17.386719 9.550781 17.585938 9.347656 C 17.789062 9.144531 17.902344 8.867188 17.902344 8.582031 L 17.902344 3.042969 L 18.355469 3.042969 C 18.507812 3.042969 18.632812 2.917969 18.636719 2.765625 L 18.636719 0.90625 C 18.628906 0.753906 18.503906 0.636719 18.355469 0.644531 L 7.367188 0.644531 C 7.296875 0.640625 7.226562 0.667969 7.175781 0.714844 C 7.125 0.765625 7.097656 0.832031 7.097656 0.90625 L 7.097656 2.765625 C 7.097656 2.917969 7.214844 3.039062 7.367188 3.042969 L 7.792969 3.042969 L 7.792969 8.582031 C 7.792969 8.871094 7.910156 9.144531 8.113281 9.347656 C 8.320312 9.554688 8.597656 9.667969 8.886719 9.664062 L 12.296875 9.664062 L 10.417969 11.34375 C 10.304688 11.445312 10.292969 11.617188 10.394531 11.730469 Z M 7.640625 1.183594 L 18.09375 1.183594 L 18.09375 2.5 L 7.640625 2.5 Z M 8.335938 8.582031 L 8.335938 3.042969 L 17.359375 3.042969 L 17.359375 8.582031 C 17.359375 8.722656 17.304688 8.863281 17.203125 8.964844 C 17.105469 9.066406 16.964844 9.125 16.824219 9.121094 L 8.886719 9.121094 C 8.742188 9.125 8.601562 9.066406 8.5 8.964844 C 8.394531 8.863281 8.335938 8.726562 8.335938 8.582031 Z M 8.335938 8.582031 "/>
<path style=" stroke:none;fill-rule:nonzero;fill:url(#linear9);" d="M 9.574219 5.171875 L 14.570312 5.171875 C 14.71875 5.171875 14.839844 5.050781 14.839844 4.902344 C 14.839844 4.753906 14.71875 4.632812 14.570312 4.632812 L 9.574219 4.632812 C 9.425781 4.632812 9.304688 4.753906 9.304688 4.902344 C 9.304688 5.050781 9.425781 5.171875 9.574219 5.171875 Z M 9.574219 5.171875 "/>
<path style=" stroke:none;fill-rule:nonzero;fill:url(#linear10);" d="M 16.15625 5.714844 L 9.574219 5.714844 C 9.425781 5.714844 9.304688 5.835938 9.304688 5.988281 C 9.304688 6.136719 9.425781 6.257812 9.574219 6.257812 L 16.15625 6.257812 C 16.308594 6.257812 16.429688 6.136719 16.429688 5.988281 C 16.429688 5.835938 16.308594 5.714844 16.15625 5.714844 Z M 16.15625 5.714844 "/>
<path style=" stroke:none;fill-rule:nonzero;fill:url(#linear11);" d="M 16.15625 6.761719 L 9.574219 6.761719 C 9.425781 6.761719 9.304688 6.882812 9.304688 7.03125 C 9.304688 7.183594 9.425781 7.304688 9.574219 7.304688 L 16.15625 7.304688 C 16.308594 7.304688 16.429688 7.183594 16.429688 7.03125 C 16.429688 6.882812 16.308594 6.761719 16.15625 6.761719 Z M 16.15625 6.761719 "/>
</g>
</svg>
