<?xml version="1.0" encoding="UTF-8"?>
<svg xmlns="http://www.w3.org/2000/svg" xmlns:xlink="http://www.w3.org/1999/xlink" width="18pt" height="18pt" viewBox="0 0 18 18" version="1.1">
<g id="surface1">
<path style=" stroke:none;fill-rule:nonzero;fill:rgb(37.254902%,49.019608%,58.431373%);fill-opacity:1;" d="M 2.148438 16.171875 L 2.148438 16.800781 C 2.148438 17.460938 2.6875 18 3.351562 18 L 6.300781 18 C 6.960938 18 7.5 17.460938 7.5 16.800781 L 7.5 16.199219 L 10.5 16.199219 L 10.5 16.800781 C 10.5 17.460938 11.039062 18 11.699219 18 L 14.648438 18 C 15.3125 18 15.851562 17.460938 15.851562 16.800781 L 15.851562 16.175781 C 16.570312 16.054688 17.097656 15.429688 17.101562 14.699219 L 17.101562 1.5 C 17.097656 0.671875 16.429688 0 15.601562 0 L 2.449219 0 C 1.621094 0 0.953125 0.671875 0.949219 1.5 L 0.949219 2.699219 C 0.949219 2.867188 1.085938 3 1.25 3 C 1.417969 3 1.550781 2.867188 1.550781 2.699219 L 1.550781 1.5 C 1.550781 1.003906 1.953125 0.601562 2.449219 0.601562 L 15.601562 0.601562 C 16.097656 0.601562 16.5 1.003906 16.5 1.5 L 16.5 14.699219 C 16.5 15.195312 16.097656 15.601562 15.601562 15.601562 L 2.449219 15.601562 C 1.953125 15.601562 1.550781 15.195312 1.550781 14.699219 L 1.550781 4.199219 C 1.550781 4.035156 1.417969 3.898438 1.25 3.898438 C 1.085938 3.898438 0.949219 4.035156 0.949219 4.199219 L 0.949219 14.699219 C 0.953125 15.414062 1.453125 16.027344 2.148438 16.171875 Z M 15.25 16.199219 L 15.25 16.800781 C 15.25 17.132812 14.980469 17.398438 14.648438 17.398438 L 11.699219 17.398438 C 11.367188 17.398438 11.101562 17.132812 11.101562 16.800781 L 11.101562 16.199219 Z M 6.898438 16.199219 L 6.898438 16.800781 C 6.898438 17.132812 6.632812 17.398438 6.300781 17.398438 L 3.351562 17.398438 C 3.019531 17.398438 2.75 17.132812 2.75 16.800781 L 2.75 16.199219 Z M 6.898438 16.199219 "/>
<path style=" stroke:none;fill-rule:nonzero;fill:rgb(37.254902%,49.019608%,58.431373%);fill-opacity:1;" d="M 3.300781 10.199219 C 3.132812 10.199219 3 10.335938 3 10.5 L 3 13.199219 C 3 13.695312 3.402344 14.101562 3.898438 14.101562 L 14.101562 14.101562 C 14.597656 14.101562 15 13.695312 15 13.199219 L 15 12.898438 C 15.496094 12.898438 15.898438 12.496094 15.898438 12 L 15.898438 10.199219 C 15.898438 9.703125 15.496094 9.300781 15 9.300781 L 15 6.898438 C 15.496094 6.898438 15.898438 6.496094 15.898438 6 L 15.898438 4.199219 C 15.898438 3.703125 15.496094 3.300781 15 3.300781 L 15 3 C 15 2.503906 14.597656 2.101562 14.101562 2.101562 L 3.898438 2.101562 C 3.402344 2.101562 3 2.503906 3 3 L 3 9 C 3 9.164062 3.132812 9.300781 3.300781 9.300781 C 3.464844 9.300781 3.601562 9.164062 3.601562 9 L 3.601562 3 C 3.601562 2.835938 3.734375 2.699219 3.898438 2.699219 L 14.101562 2.699219 C 14.265625 2.699219 14.398438 2.835938 14.398438 3 L 14.398438 3.300781 C 13.902344 3.300781 13.5 3.703125 13.5 4.199219 L 13.5 6 C 13.5 6.496094 13.902344 6.898438 14.398438 6.898438 L 14.398438 9.300781 C 13.902344 9.300781 13.5 9.703125 13.5 10.199219 L 13.5 12 C 13.5 12.496094 13.902344 12.898438 14.398438 12.898438 L 14.398438 13.199219 C 14.398438 13.367188 14.265625 13.5 14.101562 13.5 L 3.898438 13.5 C 3.734375 13.5 3.601562 13.367188 3.601562 13.199219 L 3.601562 10.5 C 3.601562 10.335938 3.464844 10.199219 3.300781 10.199219 Z M 14.101562 6 L 14.101562 4.199219 C 14.101562 4.035156 14.234375 3.898438 14.398438 3.898438 L 15 3.898438 C 15.164062 3.898438 15.300781 4.035156 15.300781 4.199219 L 15.300781 6 C 15.300781 6.164062 15.164062 6.300781 15 6.300781 L 14.398438 6.300781 C 14.234375 6.300781 14.101562 6.164062 14.101562 6 Z M 14.101562 12 L 14.101562 10.199219 C 14.101562 10.035156 14.234375 9.898438 14.398438 9.898438 L 15 9.898438 C 15.164062 9.898438 15.300781 10.035156 15.300781 10.199219 L 15.300781 12 C 15.300781 12.164062 15.164062 12.300781 15 12.300781 L 14.398438 12.300781 C 14.234375 12.300781 14.101562 12.164062 14.101562 12 Z M 14.101562 12 "/>
<path style=" stroke:none;fill-rule:nonzero;fill:rgb(37.254902%,49.019608%,58.431373%);fill-opacity:1;" d="M 5.675781 9.476562 C 6.332031 11.0625 8.019531 11.964844 9.703125 11.628906 C 11.386719 11.296875 12.601562 9.816406 12.601562 8.101562 C 12.601562 6.382812 11.386719 4.902344 9.703125 4.570312 C 8.019531 4.234375 6.332031 5.136719 5.675781 6.722656 C 5.304688 7.605469 5.304688 8.597656 5.675781 9.476562 Z M 7.582031 5.457031 L 7.691406 5.722656 C 7.730469 5.824219 7.820312 5.894531 7.929688 5.910156 C 8.035156 5.925781 8.144531 5.878906 8.207031 5.792969 C 8.273438 5.707031 8.289062 5.589844 8.242188 5.492188 L 8.136719 5.226562 C 8.699219 5.054688 9.300781 5.054688 9.863281 5.226562 L 9.757812 5.492188 C 9.710938 5.589844 9.726562 5.707031 9.792969 5.792969 C 9.855469 5.878906 9.964844 5.925781 10.070312 5.910156 C 10.179688 5.894531 10.269531 5.824219 10.308594 5.722656 L 10.417969 5.457031 C 10.941406 5.734375 11.367188 6.160156 11.644531 6.679688 L 11.378906 6.789062 C 11.277344 6.828125 11.207031 6.921875 11.191406 7.027344 C 11.175781 7.136719 11.222656 7.242188 11.308594 7.308594 C 11.394531 7.375 11.511719 7.386719 11.609375 7.34375 L 11.871094 7.234375 C 12.042969 7.800781 12.042969 8.402344 11.871094 8.964844 L 11.609375 8.855469 C 11.511719 8.8125 11.394531 8.828125 11.308594 8.890625 C 11.222656 8.957031 11.175781 9.066406 11.191406 9.171875 C 11.207031 9.28125 11.277344 9.371094 11.378906 9.410156 L 11.644531 9.519531 C 11.367188 10.039062 10.941406 10.464844 10.417969 10.742188 L 10.308594 10.480469 C 10.269531 10.378906 10.179688 10.308594 10.070312 10.292969 C 9.964844 10.277344 9.855469 10.320312 9.792969 10.410156 C 9.726562 10.496094 9.710938 10.609375 9.757812 10.710938 L 9.863281 10.972656 C 9.300781 11.144531 8.699219 11.144531 8.136719 10.972656 L 8.242188 10.710938 C 8.289062 10.609375 8.273438 10.496094 8.207031 10.410156 C 8.144531 10.320312 8.035156 10.277344 7.929688 10.292969 C 7.820312 10.308594 7.730469 10.378906 7.691406 10.480469 L 7.582031 10.742188 C 7.058594 10.464844 6.632812 10.039062 6.355469 9.519531 L 6.621094 9.410156 C 6.722656 9.371094 6.792969 9.28125 6.808594 9.171875 C 6.824219 9.066406 6.777344 8.957031 6.691406 8.890625 C 6.605469 8.828125 6.488281 8.8125 6.390625 8.855469 L 6.128906 8.964844 C 5.957031 8.402344 5.957031 7.800781 6.128906 7.234375 L 6.390625 7.34375 C 6.488281 7.386719 6.605469 7.375 6.691406 7.308594 C 6.777344 7.242188 6.824219 7.136719 6.808594 7.027344 C 6.792969 6.921875 6.722656 6.828125 6.621094 6.789062 L 6.355469 6.679688 C 6.632812 6.160156 7.058594 5.734375 7.582031 5.457031 Z M 7.582031 5.457031 "/>
<path style=" stroke:none;fill-rule:nonzero;fill:rgb(37.254902%,49.019608%,58.431373%);fill-opacity:1;" d="M 9.003906 9.898438 C 9.796875 9.898438 10.492188 9.378906 10.722656 8.621094 C 10.953125 7.859375 10.65625 7.042969 9.996094 6.601562 C 9.339844 6.164062 8.46875 6.207031 7.855469 6.710938 C 7.242188 7.214844 7.035156 8.058594 7.335938 8.789062 C 7.617188 9.460938 8.273438 9.902344 9.003906 9.898438 Z M 8.539062 6.988281 C 9.152344 6.738281 9.855469 7.027344 10.105469 7.640625 C 10.359375 8.253906 10.070312 8.953125 9.457031 9.207031 C 8.84375 9.460938 8.144531 9.171875 7.890625 8.558594 C 7.765625 8.265625 7.765625 7.933594 7.890625 7.640625 C 8.011719 7.34375 8.246094 7.109375 8.539062 6.988281 Z M 8.539062 6.988281 "/>
<path style=" stroke:none;fill-rule:nonzero;fill:rgb(37.254902%,49.019608%,58.431373%);fill-opacity:1;" d="M 6 3.300781 L 4.5 3.300781 C 4.335938 3.300781 4.199219 3.433594 4.199219 3.601562 L 4.199219 5.101562 C 4.199219 5.265625 4.335938 5.398438 4.5 5.398438 C 4.664062 5.398438 4.800781 5.265625 4.800781 5.101562 L 4.800781 3.898438 L 6 3.898438 C 6.164062 3.898438 6.300781 3.765625 6.300781 3.601562 C 6.300781 3.433594 6.164062 3.300781 6 3.300781 Z M 6 3.300781 "/>
</g>
</svg>
