<?xml version="1.0" encoding="UTF-8"?>
<svg xmlns="http://www.w3.org/2000/svg" xmlns:xlink="http://www.w3.org/1999/xlink" width="19pt" height="19pt" viewBox="0 0 19 19" version="1.1">
<g id="surface1">
<path style=" stroke:none;fill-rule:nonzero;fill:rgb(37.254902%,49.019608%,58.431373%);fill-opacity:1;" d="M 13.367188 10.113281 C 10.917969 10.113281 8.925781 12.105469 8.925781 14.558594 C 8.925781 17.007812 10.917969 19 13.367188 19 C 15.816406 19 17.808594 17.007812 17.808594 14.558594 C 17.808594 12.105469 15.816406 10.113281 13.367188 10.113281 Z M 13.367188 18.445312 C 11.222656 18.445312 9.480469 16.699219 9.480469 14.558594 C 9.480469 12.414062 11.222656 10.671875 13.367188 10.671875 C 15.511719 10.671875 17.253906 12.414062 17.253906 14.558594 C 17.253906 16.699219 15.511719 18.445312 13.367188 18.445312 Z M 13.367188 18.445312 "/>
<path style=" stroke:none;fill-rule:nonzero;fill:rgb(37.254902%,49.019608%,58.431373%);fill-opacity:1;" d="M 16.308594 13.578125 C 16.261719 13.429688 16.101562 13.351562 15.957031 13.402344 L 14.0625 14.03125 C 13.90625 13.820312 13.652344 13.683594 13.367188 13.683594 C 13.226562 13.683594 13.097656 13.714844 12.980469 13.773438 L 11.480469 12.277344 C 11.371094 12.167969 11.195312 12.167969 11.089844 12.277344 C 10.980469 12.386719 10.980469 12.5625 11.089844 12.671875 L 12.585938 14.167969 C 12.527344 14.285156 12.492188 14.417969 12.492188 14.558594 C 12.492188 15.039062 12.886719 15.429688 13.367188 15.429688 C 13.847656 15.429688 14.238281 15.039062 14.242188 14.558594 L 16.132812 13.929688 C 16.277344 13.878906 16.355469 13.722656 16.308594 13.578125 Z M 13.367188 14.875 C 13.191406 14.875 13.050781 14.730469 13.050781 14.558594 C 13.050781 14.382812 13.191406 14.242188 13.367188 14.242188 C 13.542969 14.242188 13.683594 14.382812 13.683594 14.558594 C 13.683594 14.730469 13.542969 14.875 13.367188 14.875 Z M 13.367188 14.875 "/>
<path style=" stroke:none;fill-rule:nonzero;fill:rgb(37.254902%,49.019608%,58.431373%);fill-opacity:1;" d="M 8.609375 16.0625 L 2.359375 16.0625 C 2.023438 16.0625 1.746094 15.789062 1.746094 15.449219 L 1.746094 1.171875 C 1.746094 0.832031 2.023438 0.558594 2.359375 0.558594 L 13.664062 0.558594 C 14.003906 0.558594 14.277344 0.832031 14.277344 1.171875 L 14.277344 9.203125 C 14.277344 9.355469 14.402344 9.480469 14.558594 9.480469 C 14.710938 9.480469 14.835938 9.355469 14.835938 9.203125 L 14.835938 1.171875 C 14.835938 0.523438 14.308594 0 13.664062 0 L 2.359375 0 C 1.714844 0 1.191406 0.523438 1.191406 1.171875 L 1.191406 15.449219 C 1.191406 16.09375 1.714844 16.621094 2.359375 16.621094 L 8.609375 16.621094 C 8.761719 16.621094 8.886719 16.496094 8.886719 16.34375 C 8.886719 16.1875 8.761719 16.0625 8.609375 16.0625 Z M 8.609375 16.0625 "/>
<path style=" stroke:none;fill-rule:nonzero;fill:rgb(37.254902%,49.019608%,58.431373%);fill-opacity:1;" d="M 5.808594 2.738281 C 5.6875 2.640625 5.511719 2.660156 5.414062 2.78125 L 4.464844 3.972656 L 4.078125 3.394531 C 3.996094 3.269531 3.820312 3.234375 3.695312 3.320312 C 3.566406 3.402344 3.53125 3.578125 3.617188 3.703125 L 4.210938 4.597656 C 4.261719 4.671875 4.34375 4.71875 4.429688 4.722656 C 4.433594 4.722656 4.4375 4.722656 4.441406 4.722656 C 4.527344 4.722656 4.605469 4.683594 4.660156 4.617188 L 5.851562 3.128906 C 5.945312 3.007812 5.925781 2.835938 5.808594 2.738281 Z M 5.808594 2.738281 "/>
<path style=" stroke:none;fill-rule:nonzero;fill:rgb(37.254902%,49.019608%,58.431373%);fill-opacity:1;" d="M 11.878906 2.976562 L 7.121094 2.976562 C 6.964844 2.976562 6.84375 3.097656 6.84375 3.253906 C 6.84375 3.40625 6.964844 3.53125 7.121094 3.53125 L 11.878906 3.53125 C 12.035156 3.53125 12.15625 3.40625 12.15625 3.253906 C 12.15625 3.097656 12.035156 2.976562 11.878906 2.976562 Z M 11.878906 2.976562 "/>
<path style=" stroke:none;fill-rule:nonzero;fill:rgb(37.254902%,49.019608%,58.431373%);fill-opacity:1;" d="M 7.121094 4.722656 L 10.691406 4.722656 C 10.84375 4.722656 10.96875 4.597656 10.96875 4.441406 C 10.96875 4.289062 10.84375 4.164062 10.691406 4.164062 L 7.121094 4.164062 C 6.964844 4.164062 6.84375 4.289062 6.84375 4.441406 C 6.84375 4.597656 6.964844 4.722656 7.121094 4.722656 Z M 7.121094 4.722656 "/>
<path style=" stroke:none;fill-rule:nonzero;fill:rgb(37.254902%,49.019608%,58.431373%);fill-opacity:1;" d="M 5.808594 5.714844 C 5.6875 5.617188 5.511719 5.636719 5.414062 5.757812 L 4.464844 6.945312 L 4.078125 6.371094 C 3.996094 6.242188 3.820312 6.207031 3.695312 6.292969 C 3.566406 6.378906 3.53125 6.550781 3.617188 6.679688 L 4.210938 7.570312 C 4.261719 7.644531 4.34375 7.691406 4.429688 7.695312 C 4.433594 7.695312 4.4375 7.695312 4.441406 7.695312 C 4.527344 7.695312 4.605469 7.65625 4.660156 7.589844 L 5.851562 6.105469 C 5.945312 5.984375 5.925781 5.808594 5.808594 5.714844 Z M 5.808594 5.714844 "/>
<path style=" stroke:none;fill-rule:nonzero;fill:rgb(37.254902%,49.019608%,58.431373%);fill-opacity:1;" d="M 11.878906 5.949219 L 7.121094 5.949219 C 6.964844 5.949219 6.84375 6.074219 6.84375 6.226562 C 6.84375 6.382812 6.964844 6.507812 7.121094 6.507812 L 11.878906 6.507812 C 12.035156 6.507812 12.15625 6.382812 12.15625 6.226562 C 12.15625 6.074219 12.035156 5.949219 11.878906 5.949219 Z M 11.878906 5.949219 "/>
<path style=" stroke:none;fill-rule:nonzero;fill:rgb(37.254902%,49.019608%,58.431373%);fill-opacity:1;" d="M 7.121094 7.695312 L 10.691406 7.695312 C 10.84375 7.695312 10.96875 7.570312 10.96875 7.417969 C 10.96875 7.265625 10.84375 7.140625 10.691406 7.140625 L 7.121094 7.140625 C 6.964844 7.140625 6.84375 7.265625 6.84375 7.417969 C 6.84375 7.570312 6.964844 7.695312 7.121094 7.695312 Z M 7.121094 7.695312 "/>
<path style=" stroke:none;fill-rule:nonzero;fill:rgb(37.254902%,49.019608%,58.431373%);fill-opacity:1;" d="M 5.808594 8.6875 C 5.6875 8.589844 5.511719 8.609375 5.414062 8.730469 L 4.464844 9.921875 L 4.078125 9.34375 C 3.996094 9.21875 3.820312 9.183594 3.695312 9.269531 C 3.566406 9.355469 3.53125 9.527344 3.617188 9.65625 L 4.210938 10.546875 C 4.261719 10.621094 4.34375 10.667969 4.429688 10.671875 C 4.433594 10.671875 4.4375 10.671875 4.441406 10.671875 C 4.527344 10.671875 4.605469 10.632812 4.660156 10.566406 L 5.851562 9.078125 C 5.945312 8.957031 5.925781 8.785156 5.808594 8.6875 Z M 5.808594 8.6875 "/>
<path style=" stroke:none;fill-rule:nonzero;fill:rgb(37.254902%,49.019608%,58.431373%);fill-opacity:1;" d="M 12.15625 9.203125 C 12.15625 9.046875 12.035156 8.925781 11.878906 8.925781 L 7.121094 8.925781 C 6.964844 8.925781 6.84375 9.046875 6.84375 9.203125 C 6.84375 9.355469 6.964844 9.480469 7.121094 9.480469 L 11.878906 9.480469 C 12.035156 9.480469 12.15625 9.355469 12.15625 9.203125 Z M 12.15625 9.203125 "/>
<path style=" stroke:none;fill-rule:nonzero;fill:rgb(37.254902%,49.019608%,58.431373%);fill-opacity:1;" d="M 10.074219 10.390625 C 10.074219 10.238281 9.953125 10.113281 9.796875 10.113281 L 7.121094 10.113281 C 6.964844 10.113281 6.84375 10.238281 6.84375 10.390625 C 6.84375 10.546875 6.964844 10.671875 7.121094 10.671875 L 9.796875 10.671875 C 9.953125 10.671875 10.074219 10.546875 10.074219 10.390625 Z M 10.074219 10.390625 "/>
<path style=" stroke:none;fill-rule:nonzero;fill:rgb(37.254902%,49.019608%,58.431373%);fill-opacity:1;" d="M 5.808594 11.664062 C 5.6875 11.566406 5.511719 11.585938 5.414062 11.707031 L 4.464844 12.894531 L 4.078125 12.320312 C 3.996094 12.191406 3.820312 12.15625 3.695312 12.242188 C 3.566406 12.328125 3.53125 12.5 3.617188 12.628906 L 4.210938 13.519531 C 4.261719 13.59375 4.34375 13.640625 4.429688 13.644531 C 4.433594 13.644531 4.4375 13.644531 4.441406 13.644531 C 4.527344 13.644531 4.605469 13.605469 4.660156 13.539062 L 5.851562 12.054688 C 5.945312 11.933594 5.925781 11.757812 5.808594 11.664062 Z M 5.808594 11.664062 "/>
<path style=" stroke:none;fill-rule:nonzero;fill:rgb(37.254902%,49.019608%,58.431373%);fill-opacity:1;" d="M 8.589844 12.175781 C 8.589844 12.023438 8.464844 11.898438 8.308594 11.898438 L 7.121094 11.898438 C 6.964844 11.898438 6.84375 12.023438 6.84375 12.175781 C 6.84375 12.332031 6.964844 12.457031 7.121094 12.457031 L 8.308594 12.457031 C 8.464844 12.457031 8.589844 12.332031 8.589844 12.175781 Z M 8.589844 12.175781 "/>
<path style=" stroke:none;fill-rule:nonzero;fill:rgb(37.254902%,49.019608%,58.431373%);fill-opacity:1;" d="M 7.121094 13.089844 C 6.964844 13.089844 6.84375 13.214844 6.84375 13.367188 C 6.84375 13.519531 6.964844 13.644531 7.121094 13.644531 L 8.011719 13.644531 C 8.167969 13.644531 8.289062 13.519531 8.289062 13.367188 C 8.289062 13.214844 8.167969 13.089844 8.011719 13.089844 Z M 7.121094 13.089844 "/>
</g>
</svg>
