<?xml version="1.0" encoding="UTF-8"?>
<svg xmlns="http://www.w3.org/2000/svg" xmlns:xlink="http://www.w3.org/1999/xlink" width="16pt" height="16pt" viewBox="0 0 16 16" version="1.1">
<g id="surface18959190">
<path style=" stroke:none;fill-rule:nonzero;fill:rgb(60.784314%,34.901961%,71.372549%);fill-opacity:1;" d="M 13.035156 2 C 12.867188 2.007812 12.707031 2.054688 12.566406 2.109375 C 12.421875 2.167969 11.746094 2.453125 10.71875 2.882812 C 9.6875 3.316406 8.351562 3.878906 7.027344 4.4375 C 4.378906 5.554688 1.773438 6.652344 1.773438 6.652344 L 1.804688 6.640625 C 1.804688 6.640625 1.625 6.699219 1.4375 6.828125 C 1.34375 6.890625 1.238281 6.976562 1.144531 7.109375 C 1.054688 7.246094 0.980469 7.453125 1.007812 7.664062 C 1.050781 8.027344 1.285156 8.242188 1.453125 8.363281 C 1.625 8.484375 1.785156 8.539062 1.785156 8.539062 L 1.789062 8.539062 L 4.230469 9.363281 C 4.339844 9.714844 4.976562 11.800781 5.128906 12.28125 C 5.21875 12.566406 5.304688 12.746094 5.414062 12.882812 C 5.46875 12.953125 5.53125 13.011719 5.605469 13.058594 C 5.632812 13.078125 5.664062 13.089844 5.695312 13.101562 C 5.707031 13.109375 5.714844 13.109375 5.726562 13.113281 L 5.703125 13.105469 C 5.710938 13.109375 5.714844 13.113281 5.722656 13.117188 C 5.742188 13.121094 5.753906 13.125 5.78125 13.128906 C 6.167969 13.246094 6.476562 13.003906 6.476562 13.003906 L 6.496094 12.992188 L 7.9375 11.679688 L 10.351562 13.53125 L 10.40625 13.554688 C 10.910156 13.777344 11.421875 13.652344 11.691406 13.4375 C 11.960938 13.21875 12.066406 12.9375 12.066406 12.9375 L 12.085938 12.894531 L 13.953125 3.328125 C 14.003906 3.09375 14.019531 2.871094 13.960938 2.65625 C 13.902344 2.441406 13.75 2.242188 13.570312 2.132812 C 13.382812 2.023438 13.203125 1.992188 13.035156 2 Z M 12.984375 3.023438 C 12.984375 3.054688 12.988281 3.050781 12.972656 3.109375 L 12.972656 3.117188 L 11.125 12.582031 C 11.117188 12.59375 11.101562 12.625 11.066406 12.652344 C 11.027344 12.683594 10.996094 12.703125 10.832031 12.640625 L 7.878906 10.375 L 6.09375 12 L 6.46875 9.605469 C 6.46875 9.605469 11.097656 5.292969 11.296875 5.105469 C 11.496094 4.921875 11.429688 4.882812 11.429688 4.882812 C 11.441406 4.65625 11.128906 4.816406 11.128906 4.816406 L 5.039062 8.585938 L 5.039062 8.578125 L 2.121094 7.59375 C 2.117188 7.59375 2.113281 7.589844 2.113281 7.589844 C 2.113281 7.589844 2.128906 7.585938 2.128906 7.585938 L 2.160156 7.570312 C 2.160156 7.570312 4.765625 6.472656 7.414062 5.359375 C 8.742188 4.800781 10.078125 4.238281 11.101562 3.804688 C 12.132812 3.371094 12.890625 3.054688 12.933594 3.039062 C 12.972656 3.023438 12.953125 3.023438 12.984375 3.023438 Z M 12.984375 3.023438 "/>
</g>
</svg>
