<?xml version="1.0" encoding="UTF-8"?>
<svg xmlns="http://www.w3.org/2000/svg" xmlns:xlink="http://www.w3.org/1999/xlink" width="25pt" height="25pt" viewBox="0 0 25 25" version="1.1">
<g id="surface1">
<path style=" stroke:none;fill-rule:nonzero;fill:rgb(37.254902%,49.019608%,58.431373%);fill-opacity:1;" d="M 13.65625 2.8125 C 13.175781 2.8125 12.746094 3.027344 12.453125 3.367188 C 12.15625 3.027344 11.726562 2.8125 11.246094 2.8125 L 0 2.8125 L 0 22.089844 L 11.246094 22.089844 C 11.726562 22.089844 12.15625 21.875 12.453125 21.535156 C 12.746094 21.875 13.175781 22.089844 13.65625 22.089844 L 24.902344 22.089844 L 24.902344 2.8125 Z M 12.046875 20.484375 C 12.046875 20.925781 11.691406 21.289062 11.246094 21.289062 L 0.804688 21.289062 L 0.804688 3.613281 L 11.246094 3.613281 C 11.691406 3.613281 12.046875 3.976562 12.046875 4.417969 Z M 24.097656 21.289062 L 13.65625 21.289062 C 13.210938 21.289062 12.855469 20.925781 12.855469 20.484375 L 12.855469 4.417969 C 12.855469 3.976562 13.210938 3.613281 13.65625 3.613281 L 24.097656 3.613281 Z M 24.097656 21.289062 "/>
<path style=" stroke:none;fill-rule:nonzero;fill:rgb(37.254902%,49.019608%,58.431373%);fill-opacity:1;" d="M 6.425781 4.417969 C 3.769531 4.417969 1.605469 6.582031 1.605469 9.238281 C 1.605469 11.894531 3.769531 14.058594 6.425781 14.058594 C 9.085938 14.058594 11.246094 11.894531 11.246094 9.238281 C 11.246094 6.582031 9.085938 4.417969 6.425781 4.417969 Z M 10.421875 8.835938 L 9.214844 8.835938 C 9.160156 8.292969 9.007812 7.777344 8.796875 7.304688 C 9.1875 7.195312 9.511719 7.082031 9.753906 6.988281 C 10.117188 7.527344 10.355469 8.15625 10.421875 8.835938 Z M 9.195312 6.335938 C 8.976562 6.410156 8.714844 6.492188 8.414062 6.570312 C 8.136719 6.109375 7.832031 5.707031 7.550781 5.382812 C 8.175781 5.566406 8.734375 5.898438 9.195312 6.335938 Z M 4.441406 8.835938 C 4.5 8.359375 4.65625 7.902344 4.859375 7.484375 C 5.335938 7.570312 5.863281 7.632812 6.425781 7.632812 C 6.988281 7.632812 7.515625 7.570312 7.992188 7.484375 C 8.195312 7.902344 8.351562 8.359375 8.410156 8.835938 Z M 8.410156 9.640625 C 8.351562 10.117188 8.195312 10.570312 7.992188 10.992188 C 7.515625 10.90625 6.988281 10.84375 6.425781 10.84375 C 5.863281 10.84375 5.335938 10.90625 4.859375 10.992188 C 4.65625 10.570312 4.5 10.117188 4.441406 9.640625 Z M 6.429688 5.367188 C 6.703125 5.632812 7.160156 6.117188 7.570312 6.738281 C 7.210938 6.792969 6.828125 6.828125 6.425781 6.828125 C 6.023438 6.828125 5.640625 6.792969 5.285156 6.738281 C 5.695312 6.117188 6.148438 5.632812 6.429688 5.367188 Z M 5.300781 5.382812 C 5.019531 5.707031 4.714844 6.109375 4.4375 6.570312 C 4.140625 6.492188 3.875 6.410156 3.660156 6.335938 C 4.117188 5.898438 4.675781 5.566406 5.300781 5.382812 Z M 3.101562 6.988281 C 3.339844 7.082031 3.667969 7.195312 4.058594 7.304688 C 3.847656 7.777344 3.691406 8.292969 3.636719 8.835938 L 2.429688 8.835938 C 2.5 8.15625 2.734375 7.527344 3.101562 6.988281 Z M 2.429688 9.640625 L 3.636719 9.640625 C 3.691406 10.183594 3.847656 10.699219 4.058594 11.171875 C 3.667969 11.28125 3.339844 11.394531 3.101562 11.488281 C 2.734375 10.949219 2.5 10.320312 2.429688 9.640625 Z M 3.660156 12.140625 C 3.875 12.0625 4.140625 11.980469 4.4375 11.90625 C 4.714844 12.367188 5.019531 12.769531 5.300781 13.089844 C 4.675781 12.910156 4.117188 12.578125 3.660156 12.140625 Z M 6.425781 13.109375 C 6.148438 12.839844 5.691406 12.359375 5.28125 11.738281 C 5.640625 11.683594 6.023438 11.648438 6.425781 11.648438 C 6.828125 11.648438 7.210938 11.683594 7.570312 11.738281 C 7.160156 12.359375 6.703125 12.839844 6.425781 13.109375 Z M 7.554688 13.089844 C 7.832031 12.769531 8.136719 12.367188 8.414062 11.90625 C 8.714844 11.980469 8.976562 12.0625 9.195312 12.140625 C 8.734375 12.578125 8.175781 12.910156 7.554688 13.089844 Z M 9.753906 11.488281 C 9.511719 11.394531 9.1875 11.28125 8.796875 11.171875 C 9.007812 10.699219 9.160156 10.183594 9.214844 9.640625 L 10.421875 9.640625 C 10.355469 10.320312 10.117188 10.949219 9.753906 11.488281 Z M 9.753906 11.488281 "/>
<path style=" stroke:none;fill-rule:nonzero;fill:rgb(37.254902%,49.019608%,58.431373%);fill-opacity:1;" d="M 1.605469 15.664062 L 1.605469 19.679688 L 11.246094 19.679688 L 11.246094 15.664062 Z M 10.441406 18.878906 L 2.410156 18.878906 L 2.410156 16.46875 L 10.441406 16.46875 Z M 10.441406 18.878906 "/>
<path style=" stroke:none;fill-rule:nonzero;fill:rgb(37.254902%,49.019608%,58.431373%);fill-opacity:1;" d="M 6.023438 17.269531 L 6.828125 17.269531 L 6.828125 18.074219 L 6.023438 18.074219 Z M 6.023438 17.269531 "/>
<path style=" stroke:none;fill-rule:nonzero;fill:rgb(37.254902%,49.019608%,58.431373%);fill-opacity:1;" d="M 4.015625 17.269531 L 4.820312 17.269531 L 4.820312 18.074219 L 4.015625 18.074219 Z M 4.015625 17.269531 "/>
<path style=" stroke:none;fill-rule:nonzero;fill:rgb(37.254902%,49.019608%,58.431373%);fill-opacity:1;" d="M 8.035156 17.269531 L 8.835938 17.269531 L 8.835938 18.074219 L 8.035156 18.074219 Z M 8.035156 17.269531 "/>
<path style=" stroke:none;fill-rule:nonzero;fill:rgb(37.254902%,49.019608%,58.431373%);fill-opacity:1;" d="M 23.035156 14.230469 C 22.949219 13.625 22.597656 13.105469 22.089844 12.800781 L 22.089844 8.035156 C 22.089844 6.039062 20.46875 4.417969 18.476562 4.417969 C 16.484375 4.417969 14.863281 6.039062 14.863281 8.035156 L 14.863281 12.800781 C 14.355469 13.105469 14 13.625 13.914062 14.230469 L 13.59375 16.46875 L 23.355469 16.46875 Z M 15.664062 8.035156 C 15.664062 6.484375 16.925781 5.222656 18.476562 5.222656 C 20.027344 5.222656 21.289062 6.484375 21.289062 8.035156 L 21.289062 12.492188 L 20.082031 12.148438 L 20.082031 11.832031 C 20.574219 11.390625 20.886719 10.753906 20.886719 10.042969 L 20.886719 8.035156 L 20.082031 8.035156 L 20.082031 8.433594 L 16.867188 8.433594 L 16.867188 8.035156 L 16.066406 8.035156 L 16.066406 10.042969 C 16.066406 10.75 16.378906 11.390625 16.867188 11.832031 L 16.867188 12.148438 L 15.664062 12.492188 Z M 18.476562 11.648438 C 17.589844 11.648438 16.867188 10.925781 16.867188 10.042969 L 16.867188 9.238281 L 20.082031 9.238281 L 20.082031 10.042969 C 20.082031 10.925781 19.363281 11.648438 18.476562 11.648438 Z M 14.519531 15.664062 L 14.710938 14.34375 C 14.777344 13.871094 15.117188 13.484375 15.570312 13.355469 L 17.671875 12.753906 L 17.671875 12.308594 C 17.925781 12.398438 18.195312 12.453125 18.476562 12.453125 C 18.757812 12.453125 19.027344 12.398438 19.28125 12.308594 L 19.28125 12.753906 L 21.378906 13.355469 C 21.835938 13.484375 22.175781 13.871094 22.242188 14.34375 L 22.429688 15.664062 Z M 14.519531 15.664062 "/>
<path style=" stroke:none;fill-rule:nonzero;fill:rgb(37.254902%,49.019608%,58.431373%);fill-opacity:1;" d="M 14.058594 17.269531 L 22.894531 17.269531 L 22.894531 18.074219 L 14.058594 18.074219 Z M 14.058594 17.269531 "/>
<path style=" stroke:none;fill-rule:nonzero;fill:rgb(37.254902%,49.019608%,58.431373%);fill-opacity:1;" d="M 18.878906 18.878906 L 22.894531 18.878906 L 22.894531 19.679688 L 18.878906 19.679688 Z M 18.878906 18.878906 "/>
<path style=" stroke:none;fill-rule:nonzero;fill:rgb(37.254902%,49.019608%,58.431373%);fill-opacity:1;" d="M 14.058594 18.878906 L 18.074219 18.878906 L 18.074219 19.679688 L 14.058594 19.679688 Z M 14.058594 18.878906 "/>
</g>
</svg>
