<?xml version="1.0" encoding="UTF-8"?>
<svg xmlns="http://www.w3.org/2000/svg" xmlns:xlink="http://www.w3.org/1999/xlink" width="16pt" height="16pt" viewBox="0 0 16 16" version="1.1">
<g id="surface18958180">
<path style=" stroke:none;fill-rule:nonzero;fill:rgb(60.784314%,34.901961%,71.372549%);fill-opacity:1;" d="M 4.542969 2.5 C 3.417969 2.5 2.5 3.417969 2.5 4.542969 L 2.5 11.460938 C 2.5 12.582031 3.417969 13.5 4.542969 13.5 L 11.460938 13.5 C 12.582031 13.5 13.5 12.582031 13.5 11.460938 L 13.5 4.542969 C 13.5 3.417969 12.582031 2.5 11.460938 2.5 Z M 4.542969 3.5 L 11.460938 3.5 C 12.039062 3.5 12.5 3.960938 12.5 4.542969 L 12.5 11.460938 C 12.5 12.039062 12.039062 12.5 11.460938 12.5 L 4.542969 12.5 C 3.960938 12.5 3.5 12.039062 3.5 11.460938 L 3.5 4.542969 C 3.5 3.960938 3.960938 3.5 4.542969 3.5 Z M 7.859375 6.117188 C 7.492188 6.113281 7.179688 6.117188 7.003906 6.203125 C 6.886719 6.257812 6.796875 6.386719 6.851562 6.390625 C 6.917969 6.402344 7.074219 6.4375 7.15625 6.546875 C 7.261719 6.6875 7.257812 7.011719 7.257812 7.011719 C 7.257812 7.011719 7.316406 7.898438 7.117188 8.007812 C 6.976562 8.085938 6.789062 7.929688 6.375 7.226562 C 6.167969 6.863281 6.007812 6.460938 6.007812 6.460938 C 6.007812 6.460938 5.980469 6.386719 5.925781 6.347656 C 5.859375 6.300781 5.765625 6.285156 5.765625 6.285156 L 4.789062 6.289062 C 4.789062 6.289062 4.640625 6.296875 4.589844 6.359375 C 4.539062 6.417969 4.585938 6.53125 4.585938 6.53125 C 4.585938 6.53125 5.351562 8.324219 6.21875 9.226562 C 7.011719 10.054688 7.914062 10 7.914062 10 L 8.324219 10 C 8.324219 10 8.449219 9.984375 8.511719 9.917969 C 8.570312 9.855469 8.566406 9.738281 8.566406 9.738281 C 8.566406 9.738281 8.558594 9.191406 8.8125 9.109375 C 9.066406 9.03125 9.386719 9.640625 9.726562 9.875 C 9.988281 10.050781 10.183594 10.011719 10.183594 10.011719 L 11.097656 10 C 11.097656 10 11.574219 9.96875 11.347656 9.59375 C 11.332031 9.5625 11.21875 9.316406 10.671875 8.808594 C 10.097656 8.277344 10.171875 8.363281 10.863281 7.441406 C 11.285156 6.882812 11.453125 6.539062 11.398438 6.390625 C 11.347656 6.253906 11.039062 6.289062 11.039062 6.289062 L 10.011719 6.296875 C 10.011719 6.296875 9.933594 6.285156 9.878906 6.320312 C 9.824219 6.351562 9.789062 6.429688 9.789062 6.429688 C 9.789062 6.429688 9.625 6.863281 9.40625 7.234375 C 8.949219 8.011719 8.765625 8.054688 8.691406 8.003906 C 8.515625 7.890625 8.558594 7.550781 8.558594 7.3125 C 8.558594 6.554688 8.675781 6.242188 8.335938 6.160156 C 8.226562 6.132812 8.144531 6.117188 7.859375 6.113281 Z M 7.859375 6.117188 "/>
</g>
</svg>
