<?xml version="1.0" encoding="UTF-8"?>
<svg xmlns="http://www.w3.org/2000/svg" xmlns:xlink="http://www.w3.org/1999/xlink" width="16pt" height="16pt" viewBox="0 0 16 16" version="1.1">
<g id="surface18443486">
<path style=" stroke:none;fill-rule:nonzero;fill:rgb(60.784314%,34.901961%,71.372549%);fill-opacity:1;" d="M 8 3 C 6.117188 3 4.453125 3.195312 3.4375 3.34375 C 2.597656 3.46875 1.921875 4.097656 1.765625 4.9375 C 1.632812 5.648438 1.5 6.691406 1.5 8 C 1.5 9.308594 1.632812 10.347656 1.765625 11.0625 C 1.917969 11.902344 2.597656 12.535156 3.4375 12.65625 C 4.457031 12.804688 6.128906 13 8 13 C 9.875 13 11.542969 12.804688 12.5625 12.65625 C 13.402344 12.535156 14.082031 11.902344 14.234375 11.0625 C 14.367188 10.347656 14.5 9.304688 14.5 8 C 14.5 6.699219 14.367188 5.652344 14.234375 4.9375 C 14.082031 4.101562 13.402344 3.46875 12.5625 3.34375 C 11.546875 3.195312 9.882812 3 8 3 Z M 8 4 C 9.816406 4 11.4375 4.1875 12.421875 4.328125 C 12.84375 4.390625 13.171875 4.707031 13.25 5.125 C 13.371094 5.785156 13.5 6.761719 13.5 8 C 13.5 9.234375 13.371094 10.214844 13.25 10.875 C 13.171875 11.292969 12.847656 11.613281 12.421875 11.671875 C 11.4375 11.8125 9.804688 12 8 12 C 6.195312 12 4.5625 11.8125 3.578125 11.671875 C 3.15625 11.613281 2.828125 11.292969 2.75 10.875 C 2.628906 10.214844 2.5 9.238281 2.5 8 C 2.5 6.757812 2.628906 5.785156 2.75 5.125 C 2.828125 4.707031 3.152344 4.390625 3.578125 4.328125 C 4.558594 4.1875 6.183594 4 8 4 Z M 6.5 5.140625 L 6.5 10.859375 L 7.25 10.4375 L 10.75 8.4375 L 11.5 8 L 10.75 7.5625 L 7.25 5.5625 Z M 7.5 6.859375 L 9.484375 8 L 7.5 9.140625 Z M 7.5 6.859375 "/>
</g>
</svg>
