<?xml version="1.0" encoding="UTF-8"?>
<svg xmlns="http://www.w3.org/2000/svg" xmlns:xlink="http://www.w3.org/1999/xlink" width="51pt" height="51pt" viewBox="0 0 51 51" version="1.1">
<g id="surface1">
<path style=" stroke:none;fill-rule:nonzero;fill:rgb(37.254902%,49.019608%,58.431373%);fill-opacity:1;" d="M 46.515625 7.570312 L 4.484375 7.570312 C 2.011719 7.570312 0 9.582031 0 12.054688 L 0 38.945312 C 0 41.417969 2.011719 43.429688 4.484375 43.429688 L 46.515625 43.429688 C 48.988281 43.429688 51 41.417969 51 38.945312 L 51 12.054688 C 51 9.582031 48.988281 7.570312 46.515625 7.570312 Z M 48.011719 38.945312 C 48.011719 39.769531 47.339844 40.441406 46.515625 40.441406 L 4.484375 40.441406 C 3.660156 40.441406 2.988281 39.769531 2.988281 38.945312 L 2.988281 12.054688 C 2.988281 11.230469 3.660156 10.558594 4.484375 10.558594 L 46.515625 10.558594 C 47.339844 10.558594 48.011719 11.230469 48.011719 12.054688 Z M 48.011719 38.945312 "/>
<path style=" stroke:none;fill-rule:nonzero;fill:rgb(37.254902%,49.019608%,58.431373%);fill-opacity:1;" d="M 40.539062 13.546875 C 39.394531 13.546875 38.347656 13.980469 37.554688 14.691406 C 36.757812 13.980469 35.710938 13.546875 34.5625 13.546875 C 32.09375 13.546875 30.082031 15.558594 30.082031 18.03125 C 30.082031 20.5 32.09375 22.511719 34.5625 22.511719 C 35.710938 22.511719 36.757812 22.078125 37.554688 21.367188 C 38.347656 22.078125 39.394531 22.511719 40.539062 22.511719 C 43.011719 22.511719 45.023438 20.5 45.023438 18.03125 C 45.023438 15.558594 43.011719 13.546875 40.539062 13.546875 Z M 34.5625 19.523438 C 33.742188 19.523438 33.070312 18.851562 33.070312 18.03125 C 33.070312 17.207031 33.742188 16.535156 34.5625 16.535156 C 35.386719 16.535156 36.058594 17.207031 36.058594 18.03125 C 36.058594 18.851562 35.386719 19.523438 34.5625 19.523438 Z M 40.539062 19.523438 C 39.71875 19.523438 39.046875 18.851562 39.046875 18.03125 C 39.046875 17.207031 39.71875 16.535156 40.539062 16.535156 C 41.363281 16.535156 42.035156 17.207031 42.035156 18.03125 C 42.035156 18.851562 41.363281 19.523438 40.539062 19.523438 Z M 40.539062 19.523438 "/>
<path style=" stroke:none;fill-rule:nonzero;fill:rgb(37.254902%,49.019608%,58.431373%);fill-opacity:1;" d="M 5.976562 13.546875 L 5.976562 22.511719 L 16.933594 22.511719 L 16.933594 13.546875 Z M 13.945312 19.523438 L 8.964844 19.523438 L 8.964844 16.535156 L 13.945312 16.535156 Z M 13.945312 19.523438 "/>
<path style=" stroke:none;fill-rule:nonzero;fill:rgb(37.254902%,49.019608%,58.431373%);fill-opacity:1;" d="M 5.976562 28.488281 L 45.023438 28.488281 L 45.023438 31.476562 L 5.976562 31.476562 Z M 5.976562 28.488281 "/>
<path style=" stroke:none;fill-rule:nonzero;fill:rgb(37.254902%,49.019608%,58.431373%);fill-opacity:1;" d="M 5.976562 34.464844 L 25.5 34.464844 L 25.5 37.453125 L 5.976562 37.453125 Z M 5.976562 34.464844 "/>
</g>
</svg>
