<?xml version="1.0" encoding="UTF-8"?>
<svg xmlns="http://www.w3.org/2000/svg" xmlns:xlink="http://www.w3.org/1999/xlink" width="128pt" height="128pt" viewBox="0 0 128 128" version="1.1">
<g id="surface1">
<path style=" stroke:none;fill-rule:nonzero;fill:rgb(83.137255%,88.235294%,95.686275%);fill-opacity:1;" d="M 55.699219 104.484375 L 20.316406 69.101562 L 35.671875 49.085938 L 33.617188 38.734375 L 10.316406 69.101562 L 64 122.789062 Z M 55.699219 104.484375 "/>
<path style=" stroke:none;fill-rule:nonzero;fill:rgb(2.352941%,20.784314%,78.823529%);fill-opacity:1;" d="M 118.875 68.191406 L 118.875 68.1875 L 95.574219 37.820312 C 95.292969 37.449219 94.851562 37.234375 94.386719 37.234375 L 33.617188 37.234375 C 33.148438 37.234375 32.710938 37.449219 32.425781 37.820312 L 9.125 68.1875 L 9.128906 68.191406 C 8.664062 68.785156 8.71875 69.632812 9.253906 70.164062 L 62.9375 123.847656 C 63.523438 124.433594 64.476562 124.433594 65.0625 123.847656 L 118.746094 70.164062 C 119.28125 69.632812 119.335938 68.785156 118.875 68.191406 Z M 92.554688 40.234375 L 87.507812 65.652344 L 67.125 40.234375 Z M 85.226562 67.601562 L 42.773438 67.601562 L 64 41.128906 Z M 60.875 40.234375 L 40.492188 65.652344 L 35.445312 40.234375 Z M 32.789062 42.273438 L 37.820312 67.601562 L 13.355469 67.601562 Z M 13.9375 70.601562 L 38.679688 70.601562 L 59.226562 115.890625 Z M 64 119.15625 L 41.976562 70.601562 L 86.023438 70.601562 Z M 68.773438 115.890625 L 89.316406 70.601562 L 114.0625 70.601562 Z M 90.179688 67.601562 L 95.210938 42.273438 L 114.644531 67.601562 Z M 90.179688 67.601562 "/>
<path style=" stroke:none;fill-rule:nonzero;fill:rgb(10.196078%,89.803922%,74.509804%);fill-opacity:1;" d="M 55.695312 13.359375 L 57.050781 5.464844 C 57.148438 4.902344 56.914062 4.335938 56.453125 4 C 55.992188 3.664062 55.378906 3.621094 54.875 3.886719 L 47.785156 7.613281 L 40.695312 3.886719 C 40.1875 3.621094 39.574219 3.664062 39.113281 4 C 38.652344 4.335938 38.421875 4.902344 38.515625 5.464844 L 39.871094 13.359375 L 34.136719 18.953125 C 33.726562 19.351562 33.578125 19.949219 33.753906 20.492188 C 33.933594 21.035156 34.402344 21.429688 34.964844 21.511719 L 42.894531 22.664062 L 46.4375 29.847656 C 46.691406 30.359375 47.214844 30.683594 47.785156 30.683594 C 48.355469 30.683594 48.875 30.359375 49.128906 29.847656 L 52.675781 22.664062 L 60.601562 21.511719 C 61.167969 21.429688 61.636719 21.035156 61.8125 20.492188 C 61.988281 19.949219 61.84375 19.351562 61.433594 18.953125 Z M 51.460938 19.808594 C 50.972656 19.878906 50.550781 20.1875 50.332031 20.628906 L 47.78125 25.792969 L 45.234375 20.628906 C 45.015625 20.1875 44.59375 19.878906 44.105469 19.808594 L 38.402344 18.980469 L 42.527344 14.960938 C 42.882812 14.613281 43.042969 14.117188 42.960938 13.632812 L 41.984375 7.953125 L 47.082031 10.632812 C 47.519531 10.863281 48.042969 10.863281 48.480469 10.632812 L 53.578125 7.953125 L 52.601562 13.632812 C 52.519531 14.117188 52.679688 14.613281 53.035156 14.960938 L 57.160156 18.980469 Z M 51.460938 19.808594 "/>
<path style=" stroke:none;fill-rule:nonzero;fill:rgb(10.196078%,89.803922%,74.509804%);fill-opacity:1;" d="M 23.265625 26.085938 L 24.617188 18.191406 C 24.714844 17.628906 24.484375 17.058594 24.023438 16.722656 C 23.558594 16.390625 22.949219 16.34375 22.441406 16.609375 L 15.351562 20.339844 L 8.261719 16.609375 C 7.757812 16.34375 7.144531 16.390625 6.679688 16.722656 C 6.21875 17.058594 5.988281 17.628906 6.085938 18.191406 L 7.4375 26.085938 L 1.703125 31.679688 C 1.292969 32.078125 1.148438 32.671875 1.324219 33.214844 C 1.5 33.757812 1.96875 34.15625 2.535156 34.238281 L 10.460938 35.390625 L 14.007812 42.570312 C 14.257812 43.085938 14.78125 43.40625 15.351562 43.410156 C 15.921875 43.410156 16.445312 43.085938 16.695312 42.570312 L 20.242188 35.390625 L 28.167969 34.238281 C 28.734375 34.15625 29.203125 33.757812 29.378906 33.214844 C 29.554688 32.671875 29.410156 32.078125 29 31.679688 Z M 19.03125 32.535156 C 18.542969 32.605469 18.121094 32.910156 17.902344 33.355469 L 15.351562 38.519531 L 12.800781 33.355469 C 12.582031 32.910156 12.160156 32.605469 11.671875 32.535156 L 5.972656 31.703125 L 10.097656 27.683594 C 10.449219 27.339844 10.613281 26.84375 10.527344 26.355469 L 9.554688 20.679688 L 14.652344 23.359375 C 15.089844 23.589844 15.613281 23.589844 16.050781 23.359375 L 21.148438 20.679688 L 20.175781 26.355469 C 20.089844 26.84375 20.253906 27.339844 20.605469 27.683594 L 24.730469 31.703125 Z M 19.03125 32.535156 "/>
<path style=" stroke:none;fill-rule:nonzero;fill:rgb(10.196078%,89.803922%,74.509804%);fill-opacity:1;" d="M 88.128906 13.359375 L 89.484375 5.464844 C 89.578125 4.902344 89.347656 4.335938 88.886719 4 C 88.425781 3.664062 87.8125 3.621094 87.308594 3.886719 L 80.214844 7.613281 L 73.125 3.886719 C 72.621094 3.621094 72.007812 3.664062 71.546875 4 C 71.082031 4.335938 70.851562 4.902344 70.949219 5.464844 L 72.304688 13.359375 L 66.566406 18.953125 C 66.160156 19.351562 66.011719 19.949219 66.1875 20.492188 C 66.363281 21.035156 66.832031 21.429688 67.398438 21.511719 L 75.324219 22.664062 L 78.871094 29.847656 C 79.121094 30.359375 79.644531 30.683594 80.214844 30.683594 C 80.785156 30.683594 81.308594 30.359375 81.558594 29.847656 L 85.105469 22.664062 L 93.03125 21.511719 C 93.597656 21.429688 94.066406 21.035156 94.242188 20.492188 C 94.421875 19.949219 94.273438 19.351562 93.863281 18.953125 Z M 83.894531 19.808594 C 83.40625 19.878906 82.984375 20.1875 82.765625 20.628906 L 80.214844 25.792969 L 77.664062 20.628906 C 77.445312 20.1875 77.023438 19.878906 76.535156 19.808594 L 70.835938 18.980469 L 74.960938 14.960938 C 75.3125 14.613281 75.476562 14.117188 75.390625 13.632812 L 74.417969 7.953125 L 79.515625 10.632812 C 79.953125 10.863281 80.472656 10.863281 80.910156 10.632812 L 86.007812 7.953125 L 85.035156 13.632812 C 84.953125 14.117188 85.113281 14.613281 85.46875 14.960938 L 89.59375 18.980469 Z M 83.894531 19.808594 "/>
<path style=" stroke:none;fill-rule:nonzero;fill:rgb(10.196078%,89.803922%,74.509804%);fill-opacity:1;" d="M 120.5625 26.085938 L 121.914062 18.191406 C 122.011719 17.628906 121.78125 17.058594 121.320312 16.722656 C 120.855469 16.390625 120.242188 16.34375 119.738281 16.609375 L 112.648438 20.339844 L 105.558594 16.609375 C 105.050781 16.34375 104.441406 16.390625 103.976562 16.722656 C 103.515625 17.058594 103.285156 17.628906 103.382812 18.191406 L 104.734375 26.085938 L 99 31.679688 C 98.589844 32.078125 98.445312 32.671875 98.621094 33.214844 C 98.796875 33.757812 99.265625 34.15625 99.832031 34.238281 L 107.757812 35.390625 L 111.304688 42.570312 C 111.554688 43.085938 112.078125 43.40625 112.648438 43.40625 C 113.21875 43.40625 113.742188 43.085938 113.992188 42.570312 L 117.539062 35.390625 L 125.464844 34.238281 C 126.03125 34.15625 126.5 33.757812 126.675781 33.214844 C 126.855469 32.671875 126.707031 32.078125 126.296875 31.679688 Z M 116.328125 32.535156 C 115.839844 32.605469 115.414062 32.910156 115.195312 33.355469 L 112.648438 38.519531 L 110.097656 33.355469 C 109.878906 32.910156 109.457031 32.605469 108.96875 32.535156 L 103.269531 31.703125 L 107.394531 27.683594 C 107.746094 27.339844 107.90625 26.84375 107.824219 26.355469 L 106.851562 20.679688 L 111.949219 23.359375 C 112.386719 23.589844 112.910156 23.589844 113.347656 23.359375 L 118.445312 20.679688 L 117.46875 26.355469 C 117.386719 26.84375 117.546875 27.339844 117.902344 27.683594 L 122.027344 31.703125 Z M 116.328125 32.535156 "/>
</g>
</svg>
