<?xml version="1.0" encoding="UTF-8"?>
<svg xmlns="http://www.w3.org/2000/svg" xmlns:xlink="http://www.w3.org/1999/xlink" width="48pt" height="48pt" viewBox="0 0 48 48" version="1.1">
<g id="surface1">
<path style=" stroke:none;fill-rule:nonzero;fill:rgb(37.254902%,49.019608%,58.431373%);fill-opacity:1;" d="M 23.8125 0 C 14.578125 0 7.066406 7.511719 7.066406 16.742188 C 7.066406 19.863281 7.9375 22.90625 9.570312 25.550781 L 22.863281 46.964844 C 23.117188 47.375 23.5625 47.625 24.046875 47.625 C 24.050781 47.625 24.054688 47.625 24.054688 47.625 C 24.542969 47.621094 24.992188 47.363281 25.242188 46.949219 L 38.195312 25.324219 C 39.738281 22.738281 40.558594 19.773438 40.558594 16.742188 C 40.558594 7.511719 33.046875 0 23.8125 0 Z M 35.800781 23.886719 L 24.023438 43.550781 L 11.9375 24.078125 C 10.578125 21.882812 9.839844 19.34375 9.839844 16.742188 C 9.839844 9.050781 16.121094 2.773438 23.8125 2.773438 C 31.503906 2.773438 37.777344 9.050781 37.777344 16.742188 C 37.777344 19.265625 37.085938 21.738281 35.800781 23.886719 Z M 35.800781 23.886719 "/>
<path style=" stroke:none;fill-rule:nonzero;fill:rgb(37.254902%,49.019608%,58.431373%);fill-opacity:1;" d="M 23.8125 8.371094 C 19.195312 8.371094 15.4375 12.128906 15.4375 16.742188 C 15.4375 21.328125 19.136719 25.113281 23.8125 25.113281 C 28.546875 25.113281 32.1875 21.28125 32.1875 16.742188 C 32.1875 12.128906 28.429688 8.371094 23.8125 8.371094 Z M 23.8125 22.34375 C 20.71875 22.34375 18.210938 19.832031 18.210938 16.742188 C 18.210938 13.664062 20.734375 11.144531 23.8125 11.144531 C 26.890625 11.144531 29.40625 13.664062 29.40625 16.742188 C 29.40625 19.78125 26.953125 22.34375 23.8125 22.34375 Z M 23.8125 22.34375 "/>
</g>
</svg>
