<?xml version="1.0" encoding="UTF-8"?>
<svg xmlns="http://www.w3.org/2000/svg" xmlns:xlink="http://www.w3.org/1999/xlink" width="51pt" height="51pt" viewBox="0 0 51 51" version="1.1">
<g id="surface1">
<path style=" stroke:none;fill-rule:nonzero;fill:rgb(37.254902%,49.019608%,58.431373%);fill-opacity:1;" d="M 27.96875 5.757812 C 26.980469 5.757812 26.105469 6.203125 25.5 6.894531 C 24.894531 6.203125 24.019531 5.757812 23.03125 5.757812 L 0 5.757812 L 0 45.242188 L 23.03125 45.242188 C 24.019531 45.242188 24.894531 44.796875 25.5 44.105469 C 26.105469 44.796875 26.980469 45.242188 27.96875 45.242188 L 51 45.242188 L 51 5.757812 Z M 24.675781 41.953125 C 24.675781 42.859375 23.941406 43.597656 23.03125 43.597656 L 1.644531 43.597656 L 1.644531 7.402344 L 23.03125 7.402344 C 23.941406 7.402344 24.675781 8.140625 24.675781 9.046875 Z M 49.355469 43.597656 L 27.96875 43.597656 C 27.058594 43.597656 26.324219 42.859375 26.324219 41.953125 L 26.324219 9.046875 C 26.324219 8.140625 27.058594 7.402344 27.96875 7.402344 L 49.355469 7.402344 Z M 49.355469 43.597656 "/>
<path style=" stroke:none;fill-rule:nonzero;fill:rgb(37.254902%,49.019608%,58.431373%);fill-opacity:1;" d="M 13.160156 9.046875 C 7.71875 9.046875 3.289062 13.476562 3.289062 18.917969 C 3.289062 24.363281 7.71875 28.789062 13.160156 28.789062 C 18.605469 28.789062 23.03125 24.363281 23.03125 18.917969 C 23.03125 13.476562 18.605469 9.046875 13.160156 9.046875 Z M 21.34375 18.097656 L 18.871094 18.097656 C 18.761719 16.984375 18.445312 15.925781 18.015625 14.957031 C 18.8125 14.738281 19.476562 14.503906 19.972656 14.3125 C 20.71875 15.414062 21.207031 16.703125 21.34375 18.097656 Z M 18.832031 12.972656 C 18.386719 13.128906 17.847656 13.296875 17.234375 13.453125 C 16.667969 12.511719 16.039062 11.691406 15.464844 11.027344 C 16.746094 11.402344 17.890625 12.078125 18.832031 12.972656 Z M 9.097656 18.097656 C 9.21875 17.121094 9.539062 16.1875 9.953125 15.328125 C 10.929688 15.503906 12.011719 15.628906 13.160156 15.628906 C 14.3125 15.628906 15.394531 15.503906 16.371094 15.328125 C 16.785156 16.1875 17.105469 17.121094 17.222656 18.097656 Z M 17.222656 19.742188 C 17.105469 20.71875 16.785156 21.648438 16.371094 22.511719 C 15.394531 22.332031 14.3125 22.210938 13.160156 22.210938 C 12.007812 22.210938 10.925781 22.332031 9.949219 22.511719 C 9.535156 21.648438 9.21875 20.71875 9.097656 19.742188 Z M 13.164062 10.988281 C 13.730469 11.539062 14.664062 12.53125 15.503906 13.800781 C 14.769531 13.910156 13.984375 13.984375 13.160156 13.984375 C 12.339844 13.984375 11.554688 13.910156 10.820312 13.800781 C 11.660156 12.53125 12.59375 11.539062 13.164062 10.988281 Z M 10.855469 11.027344 C 10.28125 11.691406 9.652344 12.511719 9.089844 13.453125 C 8.476562 13.296875 7.9375 13.128906 7.492188 12.972656 C 8.429688 12.078125 9.578125 11.402344 10.855469 11.027344 Z M 6.351562 14.3125 C 6.84375 14.503906 7.511719 14.738281 8.308594 14.957031 C 7.878906 15.925781 7.558594 16.984375 7.449219 18.097656 L 4.976562 18.097656 C 5.117188 16.703125 5.601562 15.414062 6.351562 14.3125 Z M 4.976562 19.742188 L 7.449219 19.742188 C 7.558594 20.855469 7.878906 21.910156 8.308594 22.882812 C 7.511719 23.101562 6.84375 23.335938 6.351562 23.527344 C 5.601562 22.425781 5.117188 21.132812 4.976562 19.742188 Z M 7.492188 24.863281 C 7.9375 24.707031 8.476562 24.539062 9.089844 24.386719 C 9.652344 25.328125 10.28125 26.148438 10.855469 26.808594 C 9.578125 26.4375 8.429688 25.761719 7.492188 24.863281 Z M 13.160156 26.851562 C 12.589844 26.296875 11.65625 25.308594 10.816406 24.039062 C 11.550781 23.925781 12.339844 23.855469 13.160156 23.855469 C 13.980469 23.855469 14.769531 23.925781 15.5 24.039062 C 14.660156 25.308594 13.730469 26.296875 13.160156 26.851562 Z M 15.46875 26.808594 C 16.039062 26.148438 16.667969 25.328125 17.234375 24.386719 C 17.847656 24.539062 18.386719 24.707031 18.832031 24.863281 C 17.890625 25.761719 16.746094 26.4375 15.46875 26.808594 Z M 19.972656 23.527344 C 19.476562 23.335938 18.8125 23.101562 18.015625 22.882812 C 18.445312 21.910156 18.761719 20.855469 18.871094 19.742188 L 21.34375 19.742188 C 21.207031 21.132812 20.71875 22.425781 19.972656 23.527344 Z M 19.972656 23.527344 "/>
<path style=" stroke:none;fill-rule:nonzero;fill:rgb(37.254902%,49.019608%,58.431373%);fill-opacity:1;" d="M 3.289062 32.082031 L 3.289062 40.304688 L 23.03125 40.304688 L 23.03125 32.082031 Z M 21.386719 38.660156 L 4.933594 38.660156 L 4.933594 33.726562 L 21.386719 33.726562 Z M 21.386719 38.660156 "/>
<path style=" stroke:none;fill-rule:nonzero;fill:rgb(37.254902%,49.019608%,58.431373%);fill-opacity:1;" d="M 12.339844 35.371094 L 13.984375 35.371094 L 13.984375 37.015625 L 12.339844 37.015625 Z M 12.339844 35.371094 "/>
<path style=" stroke:none;fill-rule:nonzero;fill:rgb(37.254902%,49.019608%,58.431373%);fill-opacity:1;" d="M 8.226562 35.371094 L 9.871094 35.371094 L 9.871094 37.015625 L 8.226562 37.015625 Z M 8.226562 35.371094 "/>
<path style=" stroke:none;fill-rule:nonzero;fill:rgb(37.254902%,49.019608%,58.431373%);fill-opacity:1;" d="M 16.453125 35.371094 L 18.097656 35.371094 L 18.097656 37.015625 L 16.453125 37.015625 Z M 16.453125 35.371094 "/>
<path style=" stroke:none;fill-rule:nonzero;fill:rgb(37.254902%,49.019608%,58.431373%);fill-opacity:1;" d="M 47.179688 29.140625 C 47.003906 27.90625 46.277344 26.84375 45.242188 26.214844 L 45.242188 16.453125 C 45.242188 12.371094 41.921875 9.046875 37.839844 9.046875 C 33.757812 9.046875 30.4375 12.371094 30.4375 16.453125 L 30.4375 26.214844 C 29.402344 26.84375 28.675781 27.90625 28.5 29.140625 L 27.84375 33.726562 L 47.835938 33.726562 Z M 32.082031 16.453125 C 32.082031 13.277344 34.664062 10.695312 37.839844 10.695312 C 41.015625 10.695312 43.597656 13.277344 43.597656 16.453125 L 43.597656 25.582031 L 41.128906 24.878906 L 41.128906 24.234375 C 42.136719 23.328125 42.773438 22.023438 42.773438 20.566406 L 42.773438 16.453125 L 41.128906 16.453125 L 41.128906 17.273438 L 34.546875 17.273438 L 34.546875 16.453125 L 32.902344 16.453125 L 32.902344 20.566406 C 32.902344 22.019531 33.542969 23.328125 34.546875 24.234375 L 34.546875 24.878906 L 32.082031 25.585938 Z M 37.839844 23.855469 C 36.023438 23.855469 34.546875 22.378906 34.546875 20.566406 L 34.546875 18.917969 L 41.128906 18.917969 L 41.128906 20.566406 C 41.128906 22.378906 39.652344 23.855469 37.839844 23.855469 Z M 29.738281 32.082031 L 30.125 29.375 C 30.261719 28.410156 30.957031 27.617188 31.890625 27.351562 L 36.195312 26.121094 L 36.195312 25.210938 C 36.710938 25.394531 37.261719 25.5 37.839844 25.5 C 38.417969 25.5 38.96875 25.394531 39.484375 25.210938 L 39.484375 26.121094 L 43.785156 27.351562 C 44.722656 27.617188 45.414062 28.410156 45.550781 29.375 L 45.9375 32.082031 Z M 29.738281 32.082031 "/>
<path style=" stroke:none;fill-rule:nonzero;fill:rgb(37.254902%,49.019608%,58.431373%);fill-opacity:1;" d="M 28.789062 35.371094 L 46.886719 35.371094 L 46.886719 37.015625 L 28.789062 37.015625 Z M 28.789062 35.371094 "/>
<path style=" stroke:none;fill-rule:nonzero;fill:rgb(37.254902%,49.019608%,58.431373%);fill-opacity:1;" d="M 38.660156 38.660156 L 46.886719 38.660156 L 46.886719 40.304688 L 38.660156 40.304688 Z M 38.660156 38.660156 "/>
<path style=" stroke:none;fill-rule:nonzero;fill:rgb(37.254902%,49.019608%,58.431373%);fill-opacity:1;" d="M 28.789062 38.660156 L 37.015625 38.660156 L 37.015625 40.304688 L 28.789062 40.304688 Z M 28.789062 38.660156 "/>
</g>
</svg>
